<svg width="35" height="34" viewBox="0 0 35 34" fill="none" xmlns="http://www.w3.org/2000/svg">
<rect width="35" height="34" fill="#F5F5F5"/>
<g clip-path="url(#clip0_1_2)">
<rect width="1600" height="960" transform="translate(-264 -853)" fill="#F1F1F1"/>
<g clip-path="url(#clip1_1_2)" filter="url(#filter0_d_1_2)">
<rect width="1002.34" height="3046" transform="translate(-181 -783)" fill="white"/>
<g filter="url(#filter1_d_1_2)">
<rect x="-80.766" y="-16.2728" width="208.125" height="182.097" rx="5.56856" fill="white" shape-rendering="crispEdges"/>
<path d="M45.9187 26.8835C45.9187 33.8032 40.3092 39.4127 33.3894 39.4127L14.5956 39.4127C12.6734 39.4127 11.1152 37.8545 11.1152 35.9324L11.1152 12.266C11.1152 8.42172 14.2316 5.30531 18.0759 5.30531L42.4384 5.30532C44.3605 5.30532 45.9187 6.86352 45.9187 8.78566L45.9187 26.8835Z" fill="#E8F5E9"/>
<path d="M17.3729 7.39355C14.8871 7.39355 12.8634 9.43574 12.8634 11.9322C12.8634 13.5114 13.6743 14.9059 14.8989 15.7187C13.4199 16.2132 12.1401 17.1375 11.2014 18.3467C10.6824 17.9475 10.1025 17.6265 9.47742 17.3964C10.4254 16.6927 11.0448 15.5622 11.0448 14.2916C11.0448 12.1743 9.33245 10.4411 7.22801 10.4411C5.12358 10.4411 3.41119 12.1743 3.41119 14.2916C3.41119 15.5629 4.03118 16.6939 4.97993 17.3977C2.46811 18.3246 0.674194 20.7513 0.674194 23.6073V25.6135C0.674451 25.7664 0.735627 25.9129 0.844097 26.0206C0.952566 26.1286 1.09934 26.1887 1.25228 26.1882H10.0541C10.0754 26.1905 10.0967 26.1918 10.1181 26.1916H24.6282C24.6495 26.1918 24.6711 26.1905 24.6922 26.1882H33.4947C33.8111 26.1869 34.0673 25.9301 34.0681 25.6135V23.6073C34.0681 20.7513 32.2773 18.3246 29.7668 17.3974C30.7155 16.6939 31.3355 15.5626 31.3355 14.2913C31.3355 12.1741 29.6231 10.4408 27.5187 10.4408C25.4143 10.4408 23.7019 12.1741 23.7019 14.2913C23.7019 15.5619 24.3216 16.6926 25.2696 17.3962C24.6432 17.6267 24.063 17.9488 23.5433 18.349C22.6051 17.1391 21.3271 16.2135 19.8481 15.7187C21.0723 14.9059 21.8836 13.5114 21.8836 11.9322C21.8836 9.43574 19.8589 7.39355 17.373 7.39355H17.3729ZM17.3729 8.5451C19.2321 8.5451 20.7309 10.054 20.7309 11.9322C20.7309 13.7957 19.2554 15.2899 17.4168 15.3138C17.4022 15.3138 17.3878 15.3118 17.3729 15.3118C17.358 15.3118 17.3438 15.3138 17.3289 15.3138C15.4903 15.2902 14.0159 13.7958 14.0159 11.9322C14.0159 10.0537 15.5134 8.5451 17.3726 8.5451H17.3729ZM7.22808 11.5926C8.70325 11.5926 9.89335 12.7898 9.89335 14.2915C9.89335 15.7831 8.71864 16.9753 7.25736 16.9915C7.24759 16.9915 7.23808 16.9904 7.22806 16.9904C7.21829 16.9904 7.20878 16.9915 7.19876 16.9915C5.73748 16.9753 4.56277 15.7829 4.56277 14.2915C4.56277 12.7899 5.75287 11.5926 7.22804 11.5926H7.22808ZM27.5184 11.5926C28.9935 11.5926 30.1836 12.7898 30.1836 14.2915C30.1836 15.7831 29.0089 16.9753 27.5476 16.9915C27.5379 16.9915 27.5284 16.9904 27.5183 16.9904C27.5086 16.9904 27.4991 16.9915 27.489 16.9915C26.0277 16.9753 24.853 15.7829 24.853 14.2915C24.853 12.7899 26.0431 11.5926 27.5183 11.5926H27.5184ZM17.3288 16.4653C17.3435 16.4656 17.3578 16.4674 17.3728 16.4674C17.3874 16.4674 17.4018 16.4653 17.4167 16.4653C21.104 16.489 24.0549 19.4653 24.0549 23.191L24.0546 25.0397H10.6914V23.191C10.6914 19.4649 13.6415 16.489 17.3283 16.4653H17.3288ZM7.18399 18.1443C7.19864 18.1446 7.21304 18.1464 7.22795 18.1464C7.24286 18.1464 7.25699 18.1443 7.2719 18.1443C8.51906 18.1544 9.65725 18.5844 10.5636 19.3038C9.91503 20.4513 9.53999 21.7758 9.53999 23.1913V25.0356H1.82528V23.6072C1.82528 20.5792 4.20602 18.168 7.18386 18.1441L7.18399 18.1443ZM27.4743 18.1443C27.4892 18.1446 27.5033 18.1464 27.5182 18.1464C27.5331 18.1464 27.5473 18.1443 27.5622 18.1443C30.54 18.168 32.9208 20.5796 32.9208 23.6075V25.0356H25.2021L25.2018 23.1913C25.2018 21.7766 24.8278 20.4531 24.1806 19.3059C25.0871 18.5854 26.2261 18.1543 27.4743 18.1443H27.4743Z" fill="#103E13"/>
</g>
</g>
</g>
<defs>
<filter id="filter0_d_1_2" x="-345" y="-951" width="1282.34" height="3326" filterUnits="userSpaceOnUse" color-interpolation-filters="sRGB">
<feFlood flood-opacity="0" result="BackgroundImageFix"/>
<feColorMatrix in="SourceAlpha" type="matrix" values="0 0 0 0 0 0 0 0 0 0 0 0 0 0 0 0 0 0 127 0" result="hardAlpha"/>
<feOffset dx="-24" dy="-28"/>
<feGaussianBlur stdDeviation="70"/>
<feComposite in2="hardAlpha" operator="out"/>
<feColorMatrix type="matrix" values="0 0 0 0 0 0 0 0 0 0 0 0 0 0 0 0 0 0 0.1 0"/>
<feBlend mode="normal" in2="BackgroundImageFix" result="effect1_dropShadow_1_2"/>
<feBlend mode="normal" in="SourceGraphic" in2="effect1_dropShadow_1_2" result="shape"/>
</filter>
<filter id="filter1_d_1_2" x="-83.5503" y="-17.665" width="213.693" height="187.665" filterUnits="userSpaceOnUse" color-interpolation-filters="sRGB">
<feFlood flood-opacity="0" result="BackgroundImageFix"/>
<feColorMatrix in="SourceAlpha" type="matrix" values="0 0 0 0 0 0 0 0 0 0 0 0 0 0 0 0 0 0 127 0" result="hardAlpha"/>
<feOffset dy="1.39214"/>
<feGaussianBlur stdDeviation="1.39214"/>
<feComposite in2="hardAlpha" operator="out"/>
<feColorMatrix type="matrix" values="0 0 0 0 0.670588 0 0 0 0 0.745098 0 0 0 0 0.819608 0 0 0 0.2 0"/>
<feBlend mode="normal" in2="BackgroundImageFix" result="effect1_dropShadow_1_2"/>
<feBlend mode="normal" in="SourceGraphic" in2="effect1_dropShadow_1_2" result="shape"/>
</filter>
<clipPath id="clip0_1_2">
<rect width="1600" height="960" fill="white" transform="translate(-264 -853)"/>
</clipPath>
<clipPath id="clip1_1_2">
<rect width="1002.34" height="3046" fill="white" transform="translate(-181 -783)"/>
</clipPath>
</defs>
</svg>
