<svg width="39" height="22" viewBox="0 0 39 22" fill="none" xmlns="http://www.w3.org/2000/svg">
<rect width="39" height="22" fill="#F5F5F5"/>
<g clip-path="url(#clip0_1_2)">
<rect width="1600" height="960" transform="translate(-949 -661)" fill="#F1F1F1"/>
<g clip-path="url(#clip1_1_2)" filter="url(#filter0_d_1_2)">
<rect width="1002.34" height="3046" transform="translate(-866 -591)" fill="white"/>
<g clip-path="url(#clip2_1_2)">
<path d="M38.8874 7.9505C38.8914 7.92147 38.8914 7.89213 38.8874 7.86311C38.8912 7.83946 38.8912 7.81534 38.8874 7.79164L38.6038 5.75031C38.5629 5.50609 38.4535 5.27783 38.2878 5.09105L38.2392 5.03545L38.1501 4.94807L33.2403 0.801883L33.3781 0.936923C33.2654 0.804751 33.1239 0.699031 32.9641 0.627551C32.8043 0.55607 32.6301 0.520645 32.4545 0.523889H30.9637C30.7213 0.51918 30.4844 0.59474 30.2912 0.738351C30.0884 0.595605 29.8441 0.520432 29.5944 0.523889H28.1037C27.9081 0.520779 27.7153 0.568351 27.5446 0.661802C27.3738 0.755252 27.2313 0.891263 27.1315 1.05606C26.9775 1.29144 26.9196 1.57503 26.9694 1.85035L27.1558 3.1371C27.0323 3.06849 26.8926 3.03289 26.7506 3.03385H19.5318C19.2728 3.03544 19.0198 3.10987 18.8026 3.2483C18.5926 3.37715 18.4241 3.56165 18.3165 3.78047L17.7575 3.31184C17.5374 3.11226 17.247 3.00408 16.9473 3.01002H5.62073C5.36081 3.01466 5.10666 3.08585 4.88347 3.21653C4.57813 3.39174 4.35435 3.67663 4.2596 4.01082L0.662334 15.806C0.59512 16.0004 0.588508 16.21 0.643345 16.4081C0.698182 16.6061 0.811983 16.7837 0.970212 16.918C1.01144 16.9523 1.05473 16.9841 1.09985 17.0133C1.09985 17.0133 1.02692 16.9657 0.986407 16.926L5.89622 21.0801C6.10391 21.2676 6.37546 21.3724 6.65775 21.374H18.0735C18.3342 21.3673 18.5885 21.2934 18.8107 21.1595C18.9364 21.0922 19.0489 21.0034 19.1429 20.8974L19.1834 20.8418L19.2482 20.7624L19.2968 20.675L19.8316 21.1278C20.0363 21.3078 20.3019 21.4068 20.577 21.4058H32.0169C32.2773 21.3973 32.5312 21.3234 32.7542 21.1913C32.8771 21.1198 32.9889 21.0316 33.0864 20.9292L33.1269 20.8736L33.1917 20.7942C33.2261 20.7439 33.256 20.6908 33.2808 20.6353C33.3073 20.5871 33.329 20.5366 33.3456 20.4844L36.6269 9.71384V9.61851C36.631 9.58155 36.631 9.54427 36.6269 9.50731V9.43584C36.6308 9.41214 36.6308 9.38802 36.6269 9.36432C36.6306 9.3141 36.6306 9.26367 36.6269 9.2134H37.6802C37.7718 9.22164 37.864 9.22164 37.9556 9.2134H38.0286C38.0879 9.19606 38.145 9.17205 38.1987 9.14193H38.2798L38.4256 9.03073L38.4904 8.98307L38.6038 8.84008V8.79247L38.6848 8.65741C38.6803 8.63115 38.6803 8.60427 38.6848 8.57801C38.6805 8.56511 38.6805 8.55117 38.6848 8.53828C38.7021 8.49171 38.7156 8.44389 38.7253 8.39529C38.7216 8.37963 38.7216 8.36329 38.7253 8.34762C38.7214 8.32398 38.7214 8.2998 38.7253 8.27616C38.7253 8.27616 38.8874 7.96637 38.8874 7.9505Z" fill="black"/>
<path d="M17.2795 3.91554C17.3225 3.95367 17.3525 4.00381 17.3656 4.0592C17.3786 4.11459 17.374 4.17256 17.3524 4.22531L13.7633 16.0126C13.7181 16.1413 13.6256 16.2488 13.504 16.3144C13.405 16.3793 13.2905 16.4176 13.1718 16.4256H1.76424C1.66682 16.421 1.57452 16.3814 1.50497 16.3144C1.4636 16.2769 1.43456 16.2281 1.42157 16.1744C1.40858 16.1206 1.41224 16.0643 1.43206 16.0126L5.02933 4.22531C5.07077 4.095 5.16033 3.98453 5.28048 3.91554C5.38107 3.85531 5.49506 3.81987 5.61267 3.81228H17.0202C17.1169 3.81319 17.2095 3.85011 17.2795 3.91554ZM11.3245 13.6376L13.4716 6.60023H7.45993L5.32099 13.6376H11.3245ZM28.1685 4.03468C28.2074 4.07902 28.2561 4.11419 28.3108 4.13756C28.3655 4.16094 28.4248 4.17193 28.4845 4.16971H29.9671C30.0236 4.17025 30.0792 4.15668 30.1289 4.13027C30.1785 4.10386 30.2204 4.06549 30.2507 4.01879C30.277 3.98231 30.2956 3.94101 30.3054 3.89735C30.3151 3.85369 30.3158 3.80856 30.3074 3.76462L30.0157 1.6677C29.988 1.57065 29.9381 1.48103 29.87 1.40558C29.831 1.36124 29.7824 1.32607 29.7277 1.30269C29.6729 1.27932 29.6136 1.26833 29.5539 1.27055H28.0713C28.0148 1.27001 27.9592 1.28359 27.9096 1.30999C27.8599 1.3364 27.818 1.37476 27.7877 1.42147C27.731 1.53267 27.7067 1.60415 27.731 1.6677L28.0308 3.76462C28.0462 3.86673 28.0944 3.96134 28.1685 4.03468ZM32.8758 1.65181C32.848 1.55476 32.7981 1.46514 32.7299 1.38969C32.6926 1.34551 32.6454 1.31036 32.592 1.28694C32.5387 1.26353 32.4805 1.25248 32.422 1.25467H30.9313C30.8758 1.25312 30.8208 1.26632 30.7723 1.29289C30.7238 1.31946 30.6836 1.3584 30.6558 1.40558C30.6019 1.47605 30.5786 1.56456 30.591 1.65181L30.8907 3.74873C30.9096 3.84976 30.9573 3.94344 31.0285 4.01879C31.0681 4.06227 31.1169 4.09684 31.1714 4.12015C31.226 4.14345 31.285 4.15494 31.3445 4.15381H32.8352C32.8906 4.15454 32.9452 4.14098 32.9935 4.11449C33.0419 4.088 33.0823 4.04953 33.1107 4.00291C33.1389 3.96737 33.1586 3.92609 33.1684 3.88211C33.1783 3.83814 33.1779 3.79257 33.1674 3.74873L32.8758 1.65181ZM26.8641 4.82897L26.7182 3.79639H19.5318C19.419 3.80249 19.3098 3.83815 19.2158 3.89965C19.1562 3.93155 19.1042 3.97577 19.0637 4.02925C19.0231 4.08273 18.9949 4.1442 18.9809 4.20942L18.3813 6.17925C18.3574 6.22848 18.3492 6.28371 18.3579 6.33758C18.3666 6.39146 18.3917 6.44147 18.4299 6.4811C18.4983 6.54406 18.5874 6.58076 18.6811 6.58436H27.4151L25.268 13.6218H16.5584C16.4461 13.6243 16.3367 13.6573 16.2425 13.7171C16.1279 13.7884 16.0442 13.8987 16.0075 14.0268L15.3998 15.9967C15.38 16.0472 15.3748 16.1022 15.3848 16.1554C15.3948 16.2087 15.4196 16.2582 15.4565 16.2985C15.5227 16.3657 15.6126 16.4055 15.7077 16.4097H27.1477C27.266 16.3997 27.38 16.3616 27.4798 16.2985C27.5995 16.2326 27.6892 16.1248 27.731 15.9967L31.0204 5.22611H27.3178C27.259 5.22725 27.2007 5.21656 27.1464 5.1947C27.092 5.17284 27.0428 5.14027 27.0019 5.09902C26.9349 5.02699 26.8875 4.93958 26.8641 4.84486V4.82897Z" fill="white"/>
</g>
</g>
<g clip-path="url(#clip3_1_2)" filter="url(#filter1_d_1_2)">
<rect width="480.768" height="1461" transform="translate(88 -989)" fill="white"/>
</g>
</g>
<defs>
<filter id="filter0_d_1_2" x="-1030" y="-759" width="1282.34" height="3326" filterUnits="userSpaceOnUse" color-interpolation-filters="sRGB">
<feFlood flood-opacity="0" result="BackgroundImageFix"/>
<feColorMatrix in="SourceAlpha" type="matrix" values="0 0 0 0 0 0 0 0 0 0 0 0 0 0 0 0 0 0 127 0" result="hardAlpha"/>
<feOffset dx="-24" dy="-28"/>
<feGaussianBlur stdDeviation="70"/>
<feComposite in2="hardAlpha" operator="out"/>
<feColorMatrix type="matrix" values="0 0 0 0 0 0 0 0 0 0 0 0 0 0 0 0 0 0 0.1 0"/>
<feBlend mode="normal" in2="BackgroundImageFix" result="effect1_dropShadow_1_2"/>
<feBlend mode="normal" in="SourceGraphic" in2="effect1_dropShadow_1_2" result="shape"/>
</filter>
<filter id="filter1_d_1_2" x="-44" y="-989" width="680.768" height="1669" filterUnits="userSpaceOnUse" color-interpolation-filters="sRGB">
<feFlood flood-opacity="0" result="BackgroundImageFix"/>
<feColorMatrix in="SourceAlpha" type="matrix" values="0 0 0 0 0 0 0 0 0 0 0 0 0 0 0 0 0 0 127 0" result="hardAlpha"/>
<feOffset dx="-32" dy="108"/>
<feGaussianBlur stdDeviation="50"/>
<feComposite in2="hardAlpha" operator="out"/>
<feColorMatrix type="matrix" values="0 0 0 0 0 0 0 0 0 0 0 0 0 0 0 0 0 0 0.2 0"/>
<feBlend mode="normal" in2="BackgroundImageFix" result="effect1_dropShadow_1_2"/>
<feBlend mode="normal" in="SourceGraphic" in2="effect1_dropShadow_1_2" result="shape"/>
</filter>
<clipPath id="clip0_1_2">
<rect width="1600" height="960" fill="white" transform="translate(-949 -661)"/>
</clipPath>
<clipPath id="clip1_1_2">
<rect width="1002.34" height="3046" fill="white" transform="translate(-866 -591)"/>
</clipPath>
<clipPath id="clip2_1_2">
<rect width="38.2838" height="20.8821" fill="white" transform="translate(0.606567 0.523682)"/>
</clipPath>
<clipPath id="clip3_1_2">
<rect width="480.768" height="1461" fill="white" transform="translate(88 -989)"/>
</clipPath>
</defs>
</svg>
