<svg width="29" height="20" viewBox="0 0 29 20" fill="none" xmlns="http://www.w3.org/2000/svg">
<rect width="29" height="20" fill="#F5F5F5"/>
<g clip-path="url(#clip0_1_2)">
<rect width="1600" height="960" transform="translate(-698 -662)" fill="#F1F1F1"/>
<g clip-path="url(#clip1_1_2)" filter="url(#filter0_d_1_2)">
<rect width="1002.34" height="3046" transform="translate(-615 -592)" fill="white"/>
<g clip-path="url(#clip2_1_2)">
<path d="M27.0806 1.50314C27.0806 1.8275 27.3468 2.09045 27.6752 2.09045H28.2697C28.5981 2.09045 28.8643 1.8275 28.8643 1.50314C28.8643 1.17878 28.5981 0.915833 28.2697 0.915833H27.6752C27.3468 0.915833 27.0806 1.17878 27.0806 1.50314Z" fill="#212326"/>
<path d="M9.83839 19.7097H12.7267L11.8858 18.8791C11.6628 18.6588 11.3604 18.5351 11.045 18.5351H9.83839C5.24126 18.5351 1.51456 14.8538 1.51456 10.3128C1.51456 5.7717 5.24126 2.09045 9.83839 2.09045H19.3513C23.9485 2.09045 27.6752 5.7717 27.6752 10.3128C27.6752 14.8538 23.9485 18.5351 19.3513 18.5351H15.7927C15.3197 18.5351 14.866 18.3495 14.5315 18.0191L13.5464 17.046C12.9889 16.4953 12.2327 16.1859 11.4443 16.1859H9.83839C6.55471 16.1859 3.8928 13.5564 3.8928 10.3128C3.8928 7.06914 6.55471 4.43968 9.83839 4.43968H19.3513C22.635 4.43968 25.2969 7.06914 25.2969 10.3128C25.2969 13.5564 22.635 16.1859 19.3513 16.1859H17.0664C16.5933 16.1859 16.1396 16.0002 15.8051 15.6698L14.82 14.6967C14.2625 14.146 13.5063 13.8366 12.7179 13.8366H9.83839C7.86821 13.8366 6.27103 12.2589 6.27103 10.3128C6.27103 8.36662 7.86821 6.78892 9.83839 6.78892H19.3513C21.3215 6.78892 22.9187 8.36662 22.9187 10.3128C22.9187 12.2352 21.3602 13.7981 19.4233 13.8359L19.4229 13.8366H18.5528C18.0797 13.8366 17.626 13.651 17.2915 13.3206L16.3064 12.3475C15.849 11.8956 15.2578 11.6062 14.6247 11.5169L14.5949 11.4874H9.83839C9.18166 11.4874 8.64927 10.9615 8.64927 10.3128C8.64927 9.66405 9.18166 9.13815 9.83839 9.13815H19.3513C20.0081 9.13815 20.5405 9.66405 20.5405 10.3128C20.5405 10.9615 20.0081 11.4874 19.3513 11.4874H16.9731L17.814 12.318C18.0369 12.5382 18.3394 12.662 18.6548 12.662H19.3513C20.6648 12.662 21.7296 11.6102 21.7296 10.3128C21.7296 9.01534 20.6648 7.96354 19.3513 7.96354H9.83839C8.52494 7.96354 7.46015 9.01534 7.46015 10.3128C7.46015 11.6102 8.52494 12.662 9.83839 12.662H14.2043C14.6774 12.662 15.1311 12.8476 15.4656 13.178L16.4507 14.1511C17.0082 14.7018 17.7643 15.0112 18.5528 15.0112H19.6486V15.0022C22.1371 14.8506 24.1078 12.809 24.1078 10.3128C24.1078 7.7179 21.9782 5.6143 19.3513 5.6143H9.83839C7.21148 5.6143 5.08191 7.7179 5.08191 10.3128C5.08191 12.9077 7.21148 15.0112 9.83839 15.0112H12.7179C13.191 15.0112 13.6447 15.1969 13.9792 15.5273L14.9643 16.5004C15.5218 17.0511 16.2779 17.3605 17.0664 17.3605H19.3513C23.2917 17.3605 26.4861 14.2051 26.4861 10.3128C26.4861 6.42042 23.2917 3.26507 19.3513 3.26507H9.83839C5.89798 3.26507 2.70368 6.42042 2.70368 10.3128C2.70368 14.2051 5.89798 17.3605 9.83839 17.3605H11.4443C11.9173 17.3605 12.371 17.5461 12.7055 17.8765L13.6907 18.8496C14.2482 19.4003 15.0043 19.7097 15.7927 19.7097H19.3513C24.6052 19.7097 28.8643 15.5026 28.8643 10.3128C28.8643 5.12298 24.6052 0.915832 19.3513 0.915833L9.83839 0.915834C4.58453 0.915835 0.325439 5.12299 0.325439 10.3128C0.32544 15.5026 4.58453 19.7097 9.83839 19.7097Z" fill="#212326"/>
</g>
</g>
</g>
<defs>
<filter id="filter0_d_1_2" x="-779" y="-760" width="1282.34" height="3326" filterUnits="userSpaceOnUse" color-interpolation-filters="sRGB">
<feFlood flood-opacity="0" result="BackgroundImageFix"/>
<feColorMatrix in="SourceAlpha" type="matrix" values="0 0 0 0 0 0 0 0 0 0 0 0 0 0 0 0 0 0 127 0" result="hardAlpha"/>
<feOffset dx="-24" dy="-28"/>
<feGaussianBlur stdDeviation="70"/>
<feComposite in2="hardAlpha" operator="out"/>
<feColorMatrix type="matrix" values="0 0 0 0 0 0 0 0 0 0 0 0 0 0 0 0 0 0 0.1 0"/>
<feBlend mode="normal" in2="BackgroundImageFix" result="effect1_dropShadow_1_2"/>
<feBlend mode="normal" in="SourceGraphic" in2="effect1_dropShadow_1_2" result="shape"/>
</filter>
<clipPath id="clip0_1_2">
<rect width="1600" height="960" fill="white" transform="translate(-698 -662)"/>
</clipPath>
<clipPath id="clip1_1_2">
<rect width="1002.34" height="3046" fill="white" transform="translate(-615 -592)"/>
</clipPath>
<clipPath id="clip2_1_2">
<rect width="28.5388" height="18.7939" fill="white" transform="translate(0.325439 0.915833)"/>
</clipPath>
</defs>
</svg>
