<svg width="37" height="14" viewBox="0 0 37 14" fill="none" xmlns="http://www.w3.org/2000/svg">
<rect width="37" height="14" fill="#F5F5F5"/>
<g clip-path="url(#clip0_1_2)">
<rect width="1600" height="960" transform="translate(-822 -665)" fill="#F1F1F1"/>
<g clip-path="url(#clip1_1_2)" filter="url(#filter0_d_1_2)">
<rect width="1002.34" height="3046" transform="translate(-739 -595)" fill="white"/>
<g clip-path="url(#clip2_1_2)">
<path d="M8.81751 0.00402832C7.40398 0.00402832 6.04836 0.565548 5.04885 1.56506L1.78686 4.82705C0.787349 5.82656 0.22583 7.18218 0.22583 8.59571C0.22583 11.5392 2.61202 13.9254 5.55554 13.9254C6.96907 13.9254 8.32469 13.3639 9.3242 12.3644L11.5805 10.108C11.5805 10.108 11.5806 10.1081 11.5805 10.108L18.1547 3.53384C18.6321 3.05648 19.2795 2.78831 19.9546 2.78831C21.0849 2.78831 22.0431 3.52494 22.3753 4.54429L24.4501 2.46949C23.5036 0.987036 21.8439 0.00402832 19.9546 0.00402832C18.5411 0.00402832 17.1855 0.565548 16.186 1.56506L7.35544 10.3956C6.87807 10.873 6.23064 11.1411 5.55554 11.1411C4.14973 11.1411 3.01011 10.0015 3.01011 8.59571C3.01011 7.92061 3.27828 7.27317 3.75564 6.79581L7.01761 3.53384C7.49498 3.05648 8.14241 2.78831 8.81751 2.78831C9.94779 2.78831 10.9059 3.52497 11.2382 4.54435L13.313 2.46954C12.3665 0.987064 10.7068 0.00402832 8.81751 0.00402832Z" fill="#394149"/>
<path d="M18.4925 10.3956C18.0152 10.873 17.3677 11.1411 16.6926 11.1411C15.5626 11.1411 14.6044 10.4047 14.2721 9.38551L12.1974 11.4603C13.1439 12.9425 14.8035 13.9254 16.6926 13.9254C18.1062 13.9254 19.4618 13.3639 20.4613 12.3644L29.2918 3.53384C29.7692 3.05648 30.4166 2.78831 31.0917 2.78831C32.4976 2.78831 33.6372 3.92793 33.6372 5.33374C33.6372 6.00883 33.369 6.65627 32.8916 7.13364L29.6297 10.3956C29.1523 10.873 28.5049 11.1411 27.8298 11.1411C26.6996 11.1411 25.7414 10.4046 25.4092 9.38528L23.3344 11.4601C24.2809 12.9425 25.9405 13.9254 27.8298 13.9254C29.2433 13.9254 30.5989 13.3639 31.5984 12.3644L34.8604 9.1024C35.8599 8.10289 36.4214 6.74727 36.4214 5.33374C36.4214 2.39022 34.0353 0.00402832 31.0917 0.00402832C29.6782 0.00402832 28.3226 0.565548 27.3231 1.56506L18.4925 10.3956Z" fill="#394149"/>
</g>
</g>
</g>
<defs>
<filter id="filter0_d_1_2" x="-903" y="-763" width="1282.34" height="3326" filterUnits="userSpaceOnUse" color-interpolation-filters="sRGB">
<feFlood flood-opacity="0" result="BackgroundImageFix"/>
<feColorMatrix in="SourceAlpha" type="matrix" values="0 0 0 0 0 0 0 0 0 0 0 0 0 0 0 0 0 0 127 0" result="hardAlpha"/>
<feOffset dx="-24" dy="-28"/>
<feGaussianBlur stdDeviation="70"/>
<feComposite in2="hardAlpha" operator="out"/>
<feColorMatrix type="matrix" values="0 0 0 0 0 0 0 0 0 0 0 0 0 0 0 0 0 0 0.1 0"/>
<feBlend mode="normal" in2="BackgroundImageFix" result="effect1_dropShadow_1_2"/>
<feBlend mode="normal" in="SourceGraphic" in2="effect1_dropShadow_1_2" result="shape"/>
</filter>
<clipPath id="clip0_1_2">
<rect width="1600" height="960" fill="white" transform="translate(-822 -665)"/>
</clipPath>
<clipPath id="clip1_1_2">
<rect width="1002.34" height="3046" fill="white" transform="translate(-739 -595)"/>
</clipPath>
<clipPath id="clip2_1_2">
<rect width="36.1956" height="13.9214" fill="white" transform="translate(0.22583 0.00402832)"/>
</clipPath>
</defs>
</svg>
