<svg width="39" height="22" viewBox="0 0 39 22" fill="none" xmlns="http://www.w3.org/2000/svg">
<rect width="39" height="22" fill="#F5F5F5"/>
<g clip-path="url(#clip0_1_2)">
<rect width="1600" height="960" transform="translate(-437 -661)" fill="#F1F1F1"/>
<g clip-path="url(#clip1_1_2)" filter="url(#filter0_d_1_2)">
<rect width="1002.34" height="3046" transform="translate(-354 -591)" fill="white"/>
<g clip-path="url(#clip2_1_2)">
<path d="M38.5802 7.9505C38.5842 7.92147 38.5842 7.89213 38.5802 7.86311C38.584 7.83946 38.584 7.81534 38.5802 7.79164L38.2966 5.75031C38.2557 5.50609 38.1463 5.27783 37.9807 5.09105L37.932 5.03545L37.8429 4.94807L32.9331 0.801883L33.0709 0.936923C32.9582 0.804751 32.8167 0.699031 32.6569 0.627551C32.4971 0.55607 32.3229 0.520645 32.1473 0.523889H30.6565C30.4141 0.51918 30.1772 0.59474 29.984 0.738351C29.7812 0.595605 29.5369 0.520432 29.2872 0.523889H27.7965C27.601 0.520779 27.4081 0.568351 27.2374 0.661802C27.0666 0.755252 26.9241 0.891263 26.8243 1.05606C26.6703 1.29144 26.6124 1.57503 26.6622 1.85035L26.8486 3.1371C26.7251 3.06849 26.5854 3.03289 26.4435 3.03385H19.2246C18.9656 3.03544 18.7126 3.10987 18.4954 3.2483C18.2854 3.37715 18.1169 3.56165 18.0093 3.78047L17.4503 3.31184C17.2302 3.11226 16.9398 3.00408 16.6401 3.01002H5.31354C5.05362 3.01466 4.79947 3.08585 4.57628 3.21653C4.27094 3.39174 4.04716 3.67663 3.95241 4.01082L0.355144 15.806C0.28793 16.0004 0.281318 16.21 0.336155 16.4081C0.390992 16.6061 0.504794 16.7837 0.663022 16.918C0.704252 16.9523 0.747543 16.9841 0.792657 17.0133C0.792657 17.0133 0.719727 16.9657 0.679217 16.926L5.58903 21.0801C5.79672 21.2676 6.06827 21.3724 6.35056 21.374H17.7663C18.027 21.3673 18.2813 21.2934 18.5035 21.1595C18.6292 21.0922 18.7417 21.0034 18.8357 20.8974L18.8762 20.8418L18.941 20.7624L18.9896 20.675L19.5244 21.1278C19.7291 21.3078 19.9948 21.4068 20.2698 21.4058H31.7097C31.9701 21.3973 32.224 21.3234 32.447 21.1913C32.5699 21.1198 32.6817 21.0316 32.7792 20.9292L32.8197 20.8736L32.8845 20.7942C32.9189 20.7439 32.9488 20.6908 32.9736 20.6353C33.0001 20.5871 33.0218 20.5366 33.0384 20.4844L36.3197 9.71384V9.61851C36.3238 9.58155 36.3238 9.54427 36.3197 9.50731V9.43584C36.3237 9.41214 36.3237 9.38802 36.3197 9.36432C36.3234 9.3141 36.3234 9.26367 36.3197 9.2134H37.373C37.4646 9.22164 37.5568 9.22164 37.6484 9.2134H37.7214C37.7807 9.19606 37.8378 9.17205 37.8915 9.14193H37.9726L38.1184 9.03073L38.1832 8.98307L38.2966 8.84008V8.79247L38.3776 8.65741C38.3731 8.63115 38.3731 8.60427 38.3776 8.57801C38.3733 8.56511 38.3733 8.55117 38.3776 8.53828C38.3949 8.49171 38.4084 8.44389 38.4182 8.39529C38.4144 8.37963 38.4144 8.36329 38.4182 8.34762C38.4142 8.32398 38.4142 8.2998 38.4182 8.27616C38.4182 8.27616 38.5802 7.96637 38.5802 7.9505Z" fill="black"/>
<path d="M16.9723 3.91554C17.0153 3.95367 17.0453 4.00381 17.0584 4.0592C17.0714 4.11459 17.0668 4.17256 17.0452 4.22531L13.4561 16.0126C13.4109 16.1413 13.3184 16.2488 13.1968 16.3144C13.0978 16.3793 12.9833 16.4176 12.8646 16.4256H1.45705C1.35963 16.421 1.26733 16.3814 1.19778 16.3144C1.15641 16.2769 1.12737 16.2281 1.11438 16.1744C1.10139 16.1206 1.10505 16.0643 1.12487 16.0126L4.72214 4.22531C4.76358 4.095 4.85314 3.98453 4.97329 3.91554C5.07388 3.85531 5.18787 3.81987 5.30548 3.81228H16.713C16.8097 3.81319 16.9024 3.85011 16.9723 3.91554ZM11.0173 13.6376L13.1644 6.60023H7.15274L5.0138 13.6376H11.0173ZM27.8613 4.03468C27.9002 4.07902 27.9489 4.11419 28.0036 4.13756C28.0583 4.16094 28.1177 4.17193 28.1773 4.16971H29.66C29.7164 4.17025 29.772 4.15668 29.8217 4.13027C29.8713 4.10386 29.9132 4.06549 29.9435 4.01879C29.9698 3.98231 29.9885 3.94101 29.9982 3.89735C30.0079 3.85369 30.0086 3.80856 30.0002 3.76462L29.7086 1.6677C29.6808 1.57065 29.6309 1.48103 29.5628 1.40558C29.5238 1.36124 29.4752 1.32607 29.4205 1.30269C29.3658 1.27932 29.3064 1.26833 29.2468 1.27055H27.7641C27.7076 1.27001 27.652 1.28359 27.6024 1.30999C27.5528 1.3364 27.5108 1.37476 27.4805 1.42147C27.4238 1.53267 27.3995 1.60415 27.4238 1.6677L27.7236 3.76462C27.739 3.86673 27.7872 3.96134 27.8613 4.03468ZM32.5686 1.65181C32.5408 1.55476 32.4909 1.46514 32.4227 1.38969C32.3854 1.34551 32.3382 1.31036 32.2848 1.28694C32.2315 1.26353 32.1733 1.25248 32.1149 1.25467H30.6241C30.5686 1.25312 30.5136 1.26632 30.4651 1.29289C30.4166 1.31946 30.3764 1.3584 30.3486 1.40558C30.2947 1.47605 30.2714 1.56456 30.2838 1.65181L30.5836 3.74873C30.6024 3.84976 30.6501 3.94344 30.7213 4.01879C30.7609 4.06227 30.8097 4.09684 30.8643 4.12015C30.9188 4.14345 30.9778 4.15494 31.0373 4.15381H32.5281C32.5835 4.15454 32.638 4.14098 32.6863 4.11449C32.7347 4.088 32.7751 4.04953 32.8035 4.00291C32.8317 3.96737 32.8514 3.92609 32.8612 3.88211C32.8711 3.83814 32.8707 3.79257 32.8602 3.74873L32.5686 1.65181ZM26.5569 4.82897L26.411 3.79639H19.2246C19.1118 3.80249 19.0026 3.83815 18.9086 3.89965C18.849 3.93155 18.797 3.97577 18.7565 4.02925C18.7159 4.08273 18.6877 4.1442 18.6737 4.20942L18.0742 6.17925C18.0502 6.22848 18.042 6.28371 18.0507 6.33758C18.0594 6.39146 18.0845 6.44147 18.1228 6.4811C18.1911 6.54406 18.2803 6.58076 18.3739 6.58436H27.1079L24.9608 13.6218H16.2512C16.1389 13.6243 16.0295 13.6573 15.9353 13.7171C15.8207 13.7884 15.737 13.8987 15.7003 14.0268L15.0926 15.9967C15.0728 16.0472 15.0676 16.1022 15.0776 16.1554C15.0876 16.2087 15.1124 16.2582 15.1493 16.2985C15.2155 16.3657 15.3054 16.4055 15.4005 16.4097H26.8405C26.9588 16.3997 27.0728 16.3616 27.1726 16.2985C27.2923 16.2326 27.382 16.1248 27.4238 15.9967L30.7132 5.22611H27.0106C26.9519 5.22725 26.8935 5.21656 26.8392 5.1947C26.7848 5.17284 26.7357 5.14027 26.6947 5.09902C26.6277 5.02699 26.5803 4.93958 26.5569 4.84486V4.82897Z" fill="white"/>
</g>
</g>
</g>
<defs>
<filter id="filter0_d_1_2" x="-518" y="-759" width="1282.34" height="3326" filterUnits="userSpaceOnUse" color-interpolation-filters="sRGB">
<feFlood flood-opacity="0" result="BackgroundImageFix"/>
<feColorMatrix in="SourceAlpha" type="matrix" values="0 0 0 0 0 0 0 0 0 0 0 0 0 0 0 0 0 0 127 0" result="hardAlpha"/>
<feOffset dx="-24" dy="-28"/>
<feGaussianBlur stdDeviation="70"/>
<feComposite in2="hardAlpha" operator="out"/>
<feColorMatrix type="matrix" values="0 0 0 0 0 0 0 0 0 0 0 0 0 0 0 0 0 0 0.1 0"/>
<feBlend mode="normal" in2="BackgroundImageFix" result="effect1_dropShadow_1_2"/>
<feBlend mode="normal" in="SourceGraphic" in2="effect1_dropShadow_1_2" result="shape"/>
</filter>
<clipPath id="clip0_1_2">
<rect width="1600" height="960" fill="white" transform="translate(-437 -661)"/>
</clipPath>
<clipPath id="clip1_1_2">
<rect width="1002.34" height="3046" fill="white" transform="translate(-354 -591)"/>
</clipPath>
<clipPath id="clip2_1_2">
<rect width="38.2838" height="20.8821" fill="white" transform="translate(0.299377 0.523682)"/>
</clipPath>
</defs>
</svg>
