<svg width="34" height="34" viewBox="0 0 34 34" fill="none" xmlns="http://www.w3.org/2000/svg">
<rect width="34" height="34" fill="#F5F5F5"/>
<g clip-path="url(#clip0_1_2)">
<rect width="1600" height="960" transform="translate(-561 -846)" fill="#F1F1F1"/>
<g clip-path="url(#clip1_1_2)" filter="url(#filter0_d_1_2)">
<rect width="1002.34" height="3046" transform="translate(-478 -776)" fill="white"/>
<g filter="url(#filter1_d_1_2)">
<rect x="-80.8923" y="-16.2728" width="208.125" height="196.097" rx="5.56856" fill="white" shape-rendering="crispEdges"/>
<path d="M45.7923 26.8835C45.7923 33.8032 40.1828 39.4127 33.263 39.4127L14.4692 39.4127C12.547 39.4127 10.9888 37.8545 10.9888 35.9324L10.9888 12.266C10.9888 8.42172 14.1052 5.30531 17.9495 5.30531L42.312 5.30532C44.2341 5.30532 45.7923 6.86352 45.7923 8.78566L45.7923 26.8835Z" fill="#E8F5E9"/>
<path d="M19.2834 13.6657C19.0662 13.6657 18.8896 13.4895 18.8896 13.272V12.6029C18.8896 12.3857 19.0659 12.2091 19.2834 12.2091C19.5006 12.2091 19.6771 12.3854 19.6771 12.6029V13.272C19.6771 13.4895 19.5006 13.6657 19.2834 13.6657Z" fill="#103E13"/>
<path d="M17.628 13.6657C17.4108 13.6657 17.2343 13.4895 17.2343 13.272V12.6029C17.2343 12.3857 17.4105 12.2091 17.628 12.2091C17.8452 12.2091 18.0217 12.3854 18.0217 12.6029V13.272C18.0215 13.4895 17.8455 13.6657 17.628 13.6657Z" fill="#103E13"/>
<path d="M15.9727 13.6657C15.7555 13.6657 15.579 13.4895 15.579 13.272V12.6029C15.579 12.3857 15.7553 12.2091 15.9727 12.2091C16.1899 12.2091 16.3665 12.3854 16.3665 12.6029V13.272C16.3665 13.4895 16.1902 13.6657 15.9727 13.6657Z" fill="#103E13"/>
<path d="M19.2834 16.4021C19.0662 16.4021 18.8896 16.2258 18.8896 16.0084V15.3395C18.8896 15.1223 19.0659 14.9457 19.2834 14.9457C19.5006 14.9457 19.6771 15.122 19.6771 15.3395V16.0084C19.6771 16.2258 19.5006 16.4021 19.2834 16.4021Z" fill="#103E13"/>
<path d="M17.628 16.4021C17.4108 16.4021 17.2343 16.2258 17.2343 16.0084V15.3395C17.2343 15.1223 17.4105 14.9457 17.628 14.9457C17.8452 14.9457 18.0217 15.122 18.0217 15.3395V16.0084C18.0215 16.2258 17.8455 16.4021 17.628 16.4021Z" fill="#103E13"/>
<path d="M15.9727 16.4021C15.7555 16.4021 15.579 16.2258 15.579 16.0084V15.3395C15.579 15.1223 15.7553 14.9457 15.9727 14.9457C16.1899 14.9457 16.3665 15.122 16.3665 15.3395V16.0084C16.3665 16.2258 16.1902 16.4021 15.9727 16.4021Z" fill="#103E13"/>
<path d="M19.2834 19.1386C19.0662 19.1386 18.8896 18.9623 18.8896 18.7448V18.0757C18.8896 17.8585 19.0659 17.6819 19.2834 17.6819C19.5006 17.6819 19.6771 17.8582 19.6771 18.0757V18.7448C19.6771 18.9623 19.5006 19.1386 19.2834 19.1386Z" fill="#103E13"/>
<path d="M17.628 19.1386C17.4108 19.1386 17.2343 18.9623 17.2343 18.7448V18.0757C17.2343 17.8585 17.4105 17.6819 17.628 17.6819C17.8452 17.6819 18.0217 17.8582 18.0217 18.0757V18.7448C18.0215 18.9623 17.8455 19.1386 17.628 19.1386Z" fill="#103E13"/>
<path d="M15.9727 19.1386C15.7555 19.1386 15.579 18.9623 15.579 18.7448V18.0757C15.579 17.8585 15.7553 17.6819 15.9727 17.6819C16.1899 17.6819 16.3665 17.8582 16.3665 18.0757V18.7448C16.3665 18.9623 16.1902 19.1386 15.9727 19.1386Z" fill="#103E13"/>
<path d="M19.2834 21.8744C19.0662 21.8744 18.8896 21.6981 18.8896 21.4807V20.8115C18.8896 20.5943 19.0659 20.4178 19.2834 20.4178C19.5006 20.4178 19.6771 20.5941 19.6771 20.8115V21.4807C19.6771 21.6981 19.5006 21.8744 19.2834 21.8744Z" fill="#103E13"/>
<path d="M17.628 21.8744C17.4108 21.8744 17.2343 21.6981 17.2343 21.4807V20.8115C17.2343 20.5943 17.4105 20.4178 17.628 20.4178C17.8452 20.4178 18.0217 20.5941 18.0217 20.8115V21.4807C18.0215 21.6981 17.8455 21.8744 17.628 21.8744Z" fill="#103E13"/>
<path d="M15.9727 21.8744C15.7555 21.8744 15.579 21.6981 15.579 21.4807V20.8115C15.579 20.5943 15.7553 20.4178 15.9727 20.4178C16.1899 20.4178 16.3665 20.5941 16.3665 20.8115V21.4807C16.3665 21.6981 16.1902 21.8744 15.9727 21.8744Z" fill="#103E13"/>
<path d="M19.2834 24.6108C19.0662 24.6108 18.8896 24.4345 18.8896 24.217V23.5482C18.8896 23.331 19.0659 23.1544 19.2834 23.1544C19.5006 23.1544 19.6771 23.3307 19.6771 23.5482V24.217C19.6771 24.4342 19.5006 24.6108 19.2834 24.6108Z" fill="#103E13"/>
<path d="M17.628 24.6108C17.4108 24.6108 17.2343 24.4345 17.2343 24.217V23.5482C17.2343 23.331 17.4105 23.1544 17.628 23.1544C17.8452 23.1544 18.0217 23.3307 18.0217 23.5482V24.217C18.0215 24.4342 17.8455 24.6108 17.628 24.6108Z" fill="#103E13"/>
<path d="M15.9727 24.6108C15.7555 24.6108 15.579 24.4345 15.579 24.217L15.5793 23.5482C15.5793 23.331 15.7555 23.1544 15.973 23.1544C16.1902 23.1544 16.3668 23.3307 16.3668 23.5482V24.217C16.3665 24.4342 16.1902 24.6108 15.9727 24.6108Z" fill="#103E13"/>
<path d="M4.72451 27.334C4.72451 27.5512 4.90079 27.7277 5.11826 27.7277H29.0963C29.3135 27.7277 29.49 27.5514 29.49 27.334C29.49 27.1168 29.3138 26.9402 29.0963 26.9402H28.3684V15.6352C28.3684 15.418 28.1921 15.2414 27.9747 15.2414L21.546 15.2417V7.09132C21.546 6.95348 21.474 6.82608 21.3565 6.75468C21.2393 6.68302 21.0926 6.67863 20.9707 6.74205L13.6618 10.5475C13.5313 10.6153 13.4501 10.7498 13.4501 10.8967V18.0159H6.37657C6.15938 18.0159 5.98282 18.1922 5.98282 18.4097V26.9403H5.11738C4.90019 26.94 4.72418 27.1163 4.72418 27.3338L4.72451 27.334ZM21.5461 21.2051H27.5813V26.9406L21.5461 26.9403V21.2051ZM21.5461 18.469H27.5813V20.4179L21.5461 20.4177V18.469ZM21.5461 16.0288H27.5813V17.682H21.5461V16.0288ZM14.2371 11.1358L20.7583 7.74035V26.9399H14.2371V11.1358ZM8.71675 23.7954C8.71675 22.9783 9.3642 22.3132 10.1602 22.3132C10.9562 22.3132 11.6039 22.978 11.6039 23.7954V26.9404H8.71675V23.7954ZM6.77029 18.8033H13.4499V26.9403H12.3914V23.7953C12.3914 22.544 11.3909 21.5259 10.1602 21.5259C8.93009 21.5259 7.92955 22.5437 7.92955 23.7953V26.9403H6.77029V18.8033Z" fill="#103E13"/>
</g>
</g>
</g>
<defs>
<filter id="filter0_d_1_2" x="-642" y="-944" width="1282.34" height="3326" filterUnits="userSpaceOnUse" color-interpolation-filters="sRGB">
<feFlood flood-opacity="0" result="BackgroundImageFix"/>
<feColorMatrix in="SourceAlpha" type="matrix" values="0 0 0 0 0 0 0 0 0 0 0 0 0 0 0 0 0 0 127 0" result="hardAlpha"/>
<feOffset dx="-24" dy="-28"/>
<feGaussianBlur stdDeviation="70"/>
<feComposite in2="hardAlpha" operator="out"/>
<feColorMatrix type="matrix" values="0 0 0 0 0 0 0 0 0 0 0 0 0 0 0 0 0 0 0.1 0"/>
<feBlend mode="normal" in2="BackgroundImageFix" result="effect1_dropShadow_1_2"/>
<feBlend mode="normal" in="SourceGraphic" in2="effect1_dropShadow_1_2" result="shape"/>
</filter>
<filter id="filter1_d_1_2" x="-83.6766" y="-17.665" width="213.693" height="201.665" filterUnits="userSpaceOnUse" color-interpolation-filters="sRGB">
<feFlood flood-opacity="0" result="BackgroundImageFix"/>
<feColorMatrix in="SourceAlpha" type="matrix" values="0 0 0 0 0 0 0 0 0 0 0 0 0 0 0 0 0 0 127 0" result="hardAlpha"/>
<feOffset dy="1.39214"/>
<feGaussianBlur stdDeviation="1.39214"/>
<feComposite in2="hardAlpha" operator="out"/>
<feColorMatrix type="matrix" values="0 0 0 0 0.670588 0 0 0 0 0.745098 0 0 0 0 0.819608 0 0 0 0.2 0"/>
<feBlend mode="normal" in2="BackgroundImageFix" result="effect1_dropShadow_1_2"/>
<feBlend mode="normal" in="SourceGraphic" in2="effect1_dropShadow_1_2" result="shape"/>
</filter>
<clipPath id="clip0_1_2">
<rect width="1600" height="960" fill="white" transform="translate(-561 -846)"/>
</clipPath>
<clipPath id="clip1_1_2">
<rect width="1002.34" height="3046" fill="white" transform="translate(-478 -776)"/>
</clipPath>
</defs>
</svg>
