<svg width="148" height="145" viewBox="0 0 148 145" fill="none" xmlns="http://www.w3.org/2000/svg">
<g id="Frame 35">
<g id="mobile-login/rafiki">
<g id="Shadow">
<path id="Vector" d="M74.1172 127.287C105.688 127.287 131.281 125.793 131.281 123.95C131.281 122.107 105.688 120.612 74.1172 120.612C42.5465 120.612 16.9534 122.107 16.9534 123.95C16.9534 125.793 42.5465 127.287 74.1172 127.287Z" fill="#F5F5F5"/>
</g>
<g id="character-2">
<path id="Vector_2" d="M103.379 49.4148L100.454 48.2355C100.454 48.2355 96.5948 55.273 95.4892 55.6297C93.9855 56.1132 90.8722 57.4576 89.0266 57.6935C88.776 57.9883 88.3662 58.9052 88.4045 59.2384C90.884 60.0668 96.3324 58.9671 97.4999 58.1004C100.156 56.1339 103.379 49.4148 103.379 49.4148Z" fill="#E58A7B"/>
<path id="Vector_3" d="M104.278 47.8139C104.823 49.8275 101.869 53.8785 101.869 53.8785L97.9982 51.7085C97.9982 51.7085 98.7234 50.0428 99.6079 48.3475C101.026 45.6086 103.656 45.5172 104.278 47.8139Z" fill="#4CAF4F"/>
<path id="Vector_4" opacity="0.2" d="M104.278 47.8139C104.823 49.8275 101.869 53.8785 101.869 53.8785L97.9982 51.7085C97.9982 51.7085 98.7234 50.0428 99.6079 48.3475C101.026 45.6086 103.656 45.5172 104.278 47.8139Z" fill="black"/>
<path id="Vector_5" opacity="0.2" d="M99.5342 52.5752L101.058 53.4302L101.327 48.7513C100.439 49.4324 99.8143 51.4844 99.5342 52.5752Z" fill="black"/>
<path id="Vector_6" d="M101.731 46.2985C101.731 46.2985 98.7175 53.0028 100.475 65.4857H112.347C112.536 63.6637 111.911 54.7718 114.172 46.1864C112.87 45.9319 111.552 45.7635 110.228 45.6823C108.547 45.5849 106.863 45.5849 105.183 45.6823C104.018 45.8005 102.864 46.0065 101.731 46.2985Z" fill="#4CAF4F"/>
<path id="Vector_7" opacity="0.2" d="M101.731 46.2985C101.731 46.2985 98.7175 53.0028 100.475 65.4857H112.347C112.536 63.6637 111.911 54.7718 114.172 46.1864C112.87 45.9319 111.552 45.7635 110.228 45.6823C108.547 45.5849 106.863 45.5849 105.183 45.6823C104.018 45.8005 102.864 46.0065 101.731 46.2985Z" fill="black"/>
<g id="Vector_8" style="mix-blend-mode:multiply">
<path d="M98.977 124.215C98.9593 124.533 103.461 124.79 109.031 124.79C114.6 124.79 119.134 124.533 119.152 124.215C119.17 123.897 114.671 123.643 109.098 123.643C103.526 123.643 98.9976 123.9 98.977 124.215Z" fill="#E8ECF1"/>
</g>
<path id="Vector_9" d="M106.902 115.849L104.796 116.664L106.61 121.35L108.716 120.535L106.902 115.849Z" fill="#E58A7B"/>
<path id="Vector_10" d="M116.292 121.948H114.072L113.258 116.809H115.478L116.292 121.948Z" fill="#E58A7B"/>
<path id="Vector_11" d="M113.919 121.691H116.413C116.456 121.692 116.498 121.707 116.531 121.735C116.564 121.763 116.586 121.802 116.593 121.845L116.914 123.817C116.921 123.867 116.917 123.917 116.903 123.965C116.888 124.013 116.864 124.057 116.831 124.094C116.798 124.132 116.757 124.162 116.711 124.182C116.666 124.202 116.616 124.213 116.566 124.212C115.697 124.197 115.278 124.144 114.181 124.144C113.506 124.144 112.117 124.215 111.18 124.215C110.242 124.215 110.18 123.295 110.567 123.21C112.3 122.835 112.972 122.325 113.55 121.83C113.652 121.74 113.783 121.691 113.919 121.691Z" fill="#263238"/>
<path id="Vector_12" d="M106.548 120.931L108.907 120.241C108.949 120.229 108.994 120.232 109.034 120.249C109.074 120.266 109.107 120.297 109.128 120.335L110.012 122.104C110.033 122.149 110.043 122.198 110.043 122.247C110.043 122.297 110.032 122.345 110.011 122.39C109.99 122.435 109.959 122.474 109.921 122.506C109.883 122.537 109.839 122.56 109.791 122.573C108.933 122.809 108.358 122.953 107.285 123.266C106.545 123.481 105.79 123.832 105.059 124.065C104.552 124.227 103.361 124.233 102.745 124.233C101.834 124.233 101.63 123.272 102.023 123.227C103.01 123.118 103.143 123.168 103.688 122.894C104.581 122.504 105.39 121.946 106.071 121.249C106.199 121.103 106.364 120.993 106.548 120.931Z" fill="#263238"/>
<path id="Vector_13" d="M89.398 57.6816L86.9569 56.6586L85.9515 59.3651C86.9521 59.5175 87.97 59.5175 88.9706 59.3651L89.398 57.6816Z" fill="#E58A7B"/>
<path id="Vector_14" d="M85.1408 56.5879L85.0759 58.3863L85.9516 59.3593L86.9569 56.6528L85.1408 56.5879Z" fill="#E58A7B"/>
<path id="Vector_15" d="M107.191 116.247L105.079 117.062L106.014 119.485L108.126 118.67L107.191 116.247Z" fill="#CF6F64"/>
<path id="Vector_16" d="M115.478 116.809H113.258L113.68 119.46H115.9L115.478 116.809Z" fill="#CF6F64"/>
<path id="Vector_17" opacity="0.2" d="M100.097 62.11C100.142 62.6436 100.192 63.189 100.256 63.7492L109.084 60.8835C110.462 60.4749 111.66 59.6087 112.48 58.4276C112.515 57.6404 112.56 56.8119 112.627 55.9481C112.657 55.5294 112.692 55.099 112.731 54.6627C112.769 54.2263 112.822 53.7428 112.878 53.277L100.097 62.11Z" fill="black"/>
<path id="Vector_18" d="M102.981 52.4397L102.686 52.4043C102.86 50.9302 103.96 49.7686 105.118 49.798V50.0929C104.104 50.0722 103.137 51.1189 102.981 52.4397Z" fill="white"/>
<path id="Vector_19" d="M104.552 55.1609H104.502V54.866C105.516 54.9044 106.469 53.8459 106.625 52.5281L106.92 52.5635C106.763 54.0052 105.699 55.1609 104.552 55.1609Z" fill="white"/>
<path id="Vector_20" d="M110.062 40.001C109.647 41.6255 109.157 44.6003 110.228 45.6823C110.228 45.6823 109.479 47.3304 106.463 47.3304C103.706 47.3304 105.183 45.6823 105.183 45.6823C107.017 45.2518 107.049 43.9133 106.808 42.6456L110.062 40.001Z" fill="#E58A7B"/>
<path id="Vector_21" d="M108.736 41.0801L106.811 42.6456C106.87 42.9369 106.905 43.2328 106.914 43.5301C107.477 44.0903 108.606 42.6721 108.721 41.9469C108.779 41.6613 108.784 41.3674 108.736 41.0801Z" fill="#CF6F64"/>
<path id="Vector_22" d="M103.5 39.9803C103.634 40.2125 103.814 40.4145 104.03 40.5738C104.245 40.7331 104.491 40.8462 104.753 40.906C105.46 41.0623 105.814 40.4107 105.619 39.7562C105.445 39.1666 104.865 38.3735 104.145 38.5091C103.991 38.5408 103.847 38.609 103.725 38.708C103.602 38.8069 103.506 38.9338 103.442 39.0778C103.379 39.2219 103.351 39.379 103.361 39.536C103.371 39.693 103.419 39.8454 103.5 39.9803Z" fill="#CF6F64"/>
<path id="Vector_23" d="M104.67 34.7825C103.567 35.2866 103.178 39.6678 104.564 40.3164C105.95 40.965 106.757 33.8243 104.67 34.7825Z" fill="#263238"/>
<path id="Vector_24" d="M110.399 37.5569C110.133 39.7563 110.104 41.0506 108.924 42.1768C108.559 42.5505 108.097 42.816 107.591 42.9439C107.084 43.0718 106.551 43.0572 106.052 42.9016C105.553 42.7461 105.107 42.4556 104.763 42.0624C104.418 41.6691 104.189 41.1884 104.101 40.6732C103.744 38.6979 104.237 35.4341 106.442 34.5585C106.905 34.3541 107.415 34.2774 107.918 34.3363C108.421 34.3952 108.899 34.5875 109.303 34.8934C109.706 35.1992 110.021 35.6075 110.213 36.0758C110.406 36.5442 110.47 37.0555 110.399 37.5569Z" fill="#E58A7B"/>
<path id="Vector_25" d="M106.775 35.9206C108.409 35.5049 109.608 35.2219 109.178 36.581C108.609 38.3971 107.925 40.1543 108.842 40.2339C109.402 40.284 111.879 39.2345 111.563 38.1701C111.289 37.2444 112.448 36.9908 112.654 36.522C113.418 34.8239 111.233 35.0479 111.622 34.016C112.011 32.9841 109.853 31.3213 108.674 32.1498C106.755 33.4883 103.461 33.4677 105.192 31.2653C106.433 29.6939 104.219 30.0152 104.219 30.0152C104.219 30.0152 105.558 30.8083 103.305 32.0348C100.923 33.3438 103.108 36.8611 106.775 35.9206Z" fill="#263238"/>
<path id="Vector_26" d="M111.265 39.9803C110.943 40.4469 110.458 40.7768 109.906 40.906C109.178 41.0623 108.898 40.4107 109.172 39.7562C109.417 39.1666 110.089 38.3735 110.785 38.5091C111.48 38.6447 111.64 39.4024 111.265 39.9803Z" fill="#E58A7B"/>
<path id="Vector_27" d="M100.475 65.4857C100.475 65.4857 98.4816 83.3227 98.3253 90.0919C98.1661 97.1323 105.08 119.1 105.08 119.1L108.618 117.626C108.618 117.626 104.49 97.554 105.08 90.6403C105.705 83.1016 108.288 65.4975 108.288 65.4975L100.475 65.4857Z" fill="#4CAF4F"/>
<path id="Vector_28" opacity="0.2" d="M105.428 70.3828C103.839 73.679 104.909 80.1976 105.77 84.0598C106.097 81.3326 106.486 78.3726 106.855 75.6337C106.819 71.4235 106.492 68.1716 105.428 70.3828Z" fill="black"/>
<path id="Vector_29" d="M108.462 116.458C108.479 116.458 108.88 117.584 108.88 117.584L104.8 119.3L104.157 118.103L108.462 116.458Z" fill="#4CAF4F"/>
<path id="Vector_30" d="M104.688 65.4857C104.688 65.4857 106.212 82.45 107.22 88.8035C108.329 95.7644 112.675 118.947 112.675 118.947H116.74C116.74 118.947 114.305 96.3275 113.845 89.4344C113.344 81.9577 112.347 65.4857 112.347 65.4857H104.688Z" fill="#4CAF4F"/>
<path id="Vector_31" d="M116.802 117.888C116.82 117.888 116.938 119.023 116.938 119.023H112.468L112.15 117.72L116.802 117.888Z" fill="#4CAF4F"/>
<path id="Vector_32" opacity="0.2" d="M115.245 116.544C115.236 116.544 115.227 116.541 115.22 116.535C115.213 116.529 115.209 116.52 115.207 116.511C115.184 116.305 112.987 95.8735 112.574 89.6822C112.126 82.966 111.224 68.0685 111.215 67.9181C111.215 67.9132 111.215 67.9083 111.217 67.9036C111.219 67.899 111.221 67.8947 111.224 67.8911C111.228 67.8875 111.232 67.8847 111.236 67.8827C111.241 67.8807 111.246 67.8797 111.251 67.8798C111.26 67.8797 111.27 67.8834 111.277 67.8899C111.284 67.8965 111.288 67.9055 111.289 67.9151C111.289 68.0655 112.2 82.9513 112.648 89.6792C113.061 95.8706 115.257 116.287 115.278 116.508C115.279 116.513 115.279 116.518 115.277 116.523C115.276 116.528 115.274 116.532 115.271 116.536C115.268 116.54 115.264 116.543 115.26 116.546C115.255 116.548 115.25 116.549 115.245 116.55V116.544Z" fill="black"/>
<path id="Vector_33" d="M107.026 38.1701C107.026 38.35 106.914 38.4944 106.796 38.4944C106.678 38.4944 106.592 38.35 106.604 38.1701C106.616 37.9903 106.716 37.8458 106.834 37.8458C106.952 37.8458 107.038 37.9932 107.026 38.1701Z" fill="#263238"/>
<path id="Vector_34" d="M105.003 38.1701C105.003 38.35 104.888 38.4944 104.773 38.4944C104.658 38.4944 104.57 38.35 104.579 38.1701C104.588 37.9903 104.694 37.8458 104.812 37.8458C104.93 37.8458 105.015 37.9932 105.003 38.1701Z" fill="#263238"/>
<path id="Vector_35" d="M105.64 38.2615C105.394 38.8106 105.077 39.3251 104.697 39.7916C104.991 40.0864 105.543 39.9508 105.543 39.9508L105.64 38.2615Z" fill="#DF5753"/>
<path id="Vector_36" d="M105.693 40.7027C105.686 40.7027 105.68 40.7013 105.673 40.6986C105.667 40.6959 105.661 40.6919 105.657 40.687C105.652 40.682 105.648 40.6761 105.646 40.6697C105.644 40.6633 105.643 40.6564 105.643 40.6496C105.644 40.6353 105.65 40.6218 105.66 40.6119C105.671 40.602 105.685 40.5965 105.699 40.5965C105.925 40.5981 106.148 40.5491 106.352 40.4532C106.556 40.3573 106.736 40.2169 106.878 40.0423C106.889 40.0334 106.902 40.0284 106.915 40.0284C106.929 40.0284 106.942 40.0334 106.952 40.0423C106.962 40.0522 106.967 40.0654 106.967 40.0791C106.967 40.0929 106.962 40.1061 106.952 40.116C106.799 40.3015 106.607 40.4506 106.389 40.5521C106.171 40.6536 105.933 40.7051 105.693 40.7027Z" fill="#263238"/>
<path id="Vector_37" d="M107.385 37.6276C107.371 37.6348 107.356 37.6386 107.34 37.6386C107.324 37.6386 107.308 37.6348 107.294 37.6276C107.184 37.5563 107.058 37.5119 106.928 37.4981C106.797 37.4843 106.665 37.5014 106.542 37.548C106.53 37.554 106.517 37.5575 106.504 37.5584C106.49 37.5592 106.477 37.5574 106.464 37.553C106.452 37.5486 106.44 37.5417 106.43 37.5328C106.42 37.5238 106.412 37.5129 106.407 37.5008C106.396 37.4746 106.395 37.4451 106.406 37.4187C106.416 37.3922 106.437 37.3709 106.463 37.3593C106.617 37.2963 106.784 37.2715 106.95 37.2869C107.115 37.3023 107.275 37.3575 107.415 37.4477C107.426 37.4554 107.436 37.4653 107.443 37.4767C107.451 37.4882 107.456 37.501 107.458 37.5144C107.461 37.5279 107.461 37.5417 107.458 37.555C107.455 37.5684 107.449 37.581 107.441 37.5922C107.427 37.6091 107.407 37.6214 107.385 37.6276Z" fill="#263238"/>
<path id="Vector_38" d="M104.222 37.0379C104.206 37.0341 104.192 37.0259 104.181 37.0143C104.171 37.0047 104.163 36.9933 104.158 36.9806C104.152 36.9679 104.15 36.9544 104.15 36.9406C104.15 36.9269 104.152 36.9133 104.158 36.9006C104.163 36.888 104.171 36.8765 104.181 36.8669C104.294 36.7402 104.434 36.6412 104.592 36.5778C104.749 36.5144 104.919 36.4882 105.089 36.5013C105.102 36.5034 105.115 36.5083 105.127 36.5156C105.138 36.5229 105.148 36.5325 105.156 36.5439C105.164 36.5552 105.169 36.568 105.172 36.5815C105.174 36.595 105.174 36.6088 105.171 36.6222C105.165 36.6495 105.149 36.6736 105.126 36.6898C105.103 36.7061 105.075 36.7135 105.047 36.7107C104.913 36.7022 104.779 36.7244 104.655 36.7755C104.531 36.8265 104.42 36.9052 104.331 37.0055C104.318 37.0204 104.3 37.0313 104.281 37.0371C104.262 37.0428 104.241 37.0431 104.222 37.0379Z" fill="#263238"/>
<path id="Vector_39" d="M115.313 49.0874L112.247 48.2708C112.247 48.2708 109.24 55.6738 108.176 56.1544C106.731 56.8148 103.072 59.1027 101.515 60.1847C101.43 60.5532 101.498 61.5291 101.692 61.7974C104.346 61.3139 109.426 59.3592 110.487 58.3656C112.908 56.0984 115.313 49.0874 115.313 49.0874Z" fill="#E58A7B"/>
<path id="Vector_40" d="M113.173 122.081C113.023 122.092 112.874 122.052 112.751 121.966C112.713 121.931 112.685 121.888 112.669 121.839C112.653 121.791 112.65 121.739 112.66 121.688C112.662 121.657 112.672 121.627 112.69 121.601C112.707 121.575 112.732 121.554 112.76 121.541C113.008 121.414 113.701 121.854 113.78 121.904C113.789 121.909 113.796 121.917 113.799 121.927C113.803 121.936 113.804 121.947 113.801 121.957C113.798 121.967 113.793 121.977 113.786 121.984C113.779 121.992 113.77 121.998 113.76 122.001C113.567 122.048 113.371 122.075 113.173 122.081ZM112.878 121.621C112.856 121.616 112.833 121.616 112.81 121.621C112.799 121.626 112.79 121.635 112.783 121.646C112.777 121.657 112.774 121.67 112.775 121.683C112.767 121.717 112.768 121.753 112.779 121.786C112.789 121.82 112.808 121.85 112.834 121.874C112.949 121.977 113.238 121.989 113.618 121.915C113.392 121.766 113.137 121.666 112.869 121.621H112.878Z" fill="#4CAF4F"/>
<path id="Vector_41" d="M113.745 122.001C113.737 122.003 113.729 122.003 113.721 122.001C113.5 121.877 113.084 121.391 113.146 121.143C113.156 121.104 113.178 121.069 113.209 121.044C113.241 121.018 113.28 121.005 113.32 121.004C113.36 120.999 113.4 121.002 113.438 121.014C113.476 121.026 113.512 121.046 113.541 121.072C113.786 121.282 113.801 121.924 113.801 121.957C113.802 121.966 113.8 121.976 113.796 121.985C113.791 121.993 113.783 122 113.774 122.004C113.764 122.006 113.754 122.005 113.745 122.001ZM113.35 121.102H113.329C113.261 121.102 113.252 121.14 113.25 121.155C113.214 121.299 113.477 121.668 113.695 121.842C113.694 121.593 113.617 121.35 113.474 121.146C113.439 121.116 113.395 121.1 113.35 121.102Z" fill="#4CAF4F"/>
<path id="Vector_42" d="M105.345 121.712C105.165 121.775 104.968 121.775 104.788 121.712C104.747 121.69 104.712 121.658 104.687 121.618C104.662 121.579 104.647 121.534 104.643 121.488C104.64 121.459 104.643 121.429 104.654 121.402C104.665 121.374 104.683 121.35 104.705 121.332C104.941 121.119 105.905 121.332 106.014 121.373C106.025 121.376 106.034 121.382 106.04 121.39C106.047 121.399 106.05 121.409 106.05 121.42C106.05 121.431 106.047 121.442 106.042 121.452C106.036 121.461 106.027 121.469 106.017 121.473C105.8 121.571 105.575 121.651 105.345 121.712ZM104.865 121.361C104.831 121.368 104.799 121.383 104.773 121.405C104.764 121.412 104.757 121.422 104.752 121.433C104.748 121.444 104.747 121.456 104.75 121.467C104.752 121.498 104.761 121.528 104.778 121.554C104.794 121.581 104.817 121.602 104.844 121.618C105 121.7 105.363 121.635 105.832 121.438C105.516 121.358 105.189 121.332 104.865 121.361Z" fill="#4CAF4F"/>
<path id="Vector_43" d="M106.009 121.473H105.985C105.69 121.42 105.1 121.081 105.083 120.828C105.083 120.769 105.109 120.686 105.251 120.639C105.299 120.622 105.349 120.615 105.4 120.618C105.451 120.621 105.5 120.634 105.546 120.657C105.864 120.813 106.032 121.379 106.041 121.405C106.043 121.414 106.043 121.424 106.04 121.432C106.038 121.441 106.033 121.449 106.026 121.455C106.022 121.463 106.016 121.469 106.009 121.473ZM105.31 120.727H105.28C105.189 120.76 105.189 120.798 105.189 120.81C105.189 120.963 105.616 121.243 105.914 121.338C105.846 121.101 105.7 120.893 105.501 120.748C105.442 120.718 105.374 120.71 105.31 120.727Z" fill="#4CAF4F"/>
<path id="Vector_44" d="M101.766 60.0107L98.691 61.4259L98.3342 62.3104L99.4693 63.074C99.4693 63.074 101.592 62.844 102.196 61.479L101.766 60.0107Z" fill="#E58A7B"/>
<path id="Vector_45" d="M101.896 61.8475C101.827 61.2567 101.632 60.6876 101.324 60.1788L101.81 59.8132C102.176 60.3994 102.41 61.0585 102.494 61.7443L101.896 61.8475Z" fill="#263238"/>
<path id="Vector_46" d="M102.42 60.4294C102.486 60.5317 102.517 60.6515 102.512 60.7725C102.506 60.8936 102.464 61.01 102.39 61.1059C102.316 61.2019 102.214 61.2727 102.098 61.3088C101.983 61.3448 101.859 61.3444 101.743 61.3075C101.628 61.2706 101.527 61.199 101.453 61.1026C101.38 61.0061 101.338 60.8894 101.334 60.7683C101.329 60.6472 101.362 60.5277 101.428 60.4259C101.493 60.3241 101.589 60.2451 101.701 60.1995C101.827 60.1353 101.973 60.1234 102.108 60.1665C102.243 60.2095 102.355 60.304 102.42 60.4294Z" fill="#263238"/>
<path id="Vector_47" d="M96.6124 62.5698L97.0222 62.9826L99.7818 61.8033L98.691 61.4259L96.6124 62.5698Z" fill="#E58A7B"/>
<path id="Vector_48" opacity="0.2" d="M108.462 116.458C108.479 116.458 108.88 117.584 108.88 117.584L104.8 119.3L104.157 118.103L108.462 116.458Z" fill="black"/>
<path id="Vector_49" opacity="0.2" d="M116.802 117.888C116.82 117.888 116.938 119.023 116.938 119.023H112.468L112.15 117.72L116.802 117.888Z" fill="black"/>
<path id="Vector_50" d="M116.112 48.2384C116.923 50.8535 113.754 54.4297 113.754 54.4297L109.375 52.6431C109.894 51.1316 110.493 49.6485 111.168 48.2C112.512 45.3019 115.293 45.5997 116.112 48.2384Z" fill="#4CAF4F"/>
<path id="Vector_51" opacity="0.2" d="M116.112 48.2384C116.923 50.8535 113.754 54.4297 113.754 54.4297L109.375 52.6431C109.894 51.1316 110.493 49.6485 111.168 48.2C112.512 45.3019 115.293 45.5997 116.112 48.2384Z" fill="black"/>
</g>
<g id="Screen">
<path id="Vector_52" d="M72.6077 22.0372H70.7238V22.3409H72.6077V22.0372Z" fill="#4CAF4F"/>
<path id="Vector_53" d="M96.9952 34.0562L96.7672 39.1162L97.0706 39.1299L97.2986 34.0699L96.9952 34.0562Z" fill="#4CAF4F"/>
<path id="Vector_54" d="M96.409 23.3993H61.6195L58.3823 95.844H93.1718L96.409 23.3993Z" fill="#4CAF4F"/>
<path id="Vector_55" opacity="0.56" d="M95.3713 24.3958H60.5818L57.3446 96.8404H92.1341L95.3713 24.3958Z" fill="#FAFAFA"/>
<path id="Vector_56" opacity="0.07" d="M94.3335 25.3894H59.544L56.3038 97.8341H91.0933L94.3335 25.3894Z" fill="#4CAF4F"/>
<path id="Vector_57" d="M90.3739 56.9858H60.679L60.4314 62.5286H90.1263L90.3739 56.9858Z" fill="white"/>
<path id="Vector_58" d="M77.0095 52.9409H60.859L60.7499 55.4204H76.9005L77.0095 52.9409Z" fill="#4CAF4F"/>
<path id="Vector_59" d="M89.7047 71.9453H60.0099L59.7622 77.488H89.4571L89.7047 71.9453Z" fill="white"/>
<path id="Vector_60" opacity="0.47" d="M84.2593 84.9738H64.2907L63.9929 91.6162H83.9615L84.2593 84.9738Z" fill="#4CAF4F"/>
<path id="Vector_61" d="M82.9237 92.648H62.9551C62.9464 92.6503 62.9373 92.6503 62.9286 92.648C62.9257 92.6394 62.9257 92.6301 62.9286 92.6215L63.2234 85.9761C63.2234 85.9716 63.2243 85.9671 63.2261 85.963C63.2279 85.9588 63.2306 85.9551 63.2339 85.9521C63.2373 85.949 63.2412 85.9467 63.2455 85.9453C63.2498 85.9438 63.2543 85.9433 63.2588 85.9437H83.2274C83.231 85.9419 83.2351 85.9409 83.2392 85.9409C83.2432 85.9409 83.2473 85.9419 83.2509 85.9437C83.253 85.9473 83.2541 85.9513 83.2541 85.9555C83.2541 85.9596 83.253 85.9637 83.2509 85.9673L82.962 92.6274C82.9585 92.6343 82.9529 92.64 82.9461 92.6437C82.9392 92.6474 82.9314 92.6489 82.9237 92.648ZM62.9905 92.5773H82.8883L83.1831 86.0026H63.2853L62.9905 92.5773Z" fill="white"/>
<path id="Vector_62" d="M73.5217 67.9003H60.1897L60.0806 70.3827H73.4097L73.5217 67.9003Z" fill="#4CAF4F"/>
<path id="Vector_63" d="M83.8789 39.0811C83.8027 40.6942 83.229 42.2442 82.2367 43.5182C81.5021 44.4806 80.5568 45.2618 79.4734 45.802C78.3899 46.3423 77.197 46.627 75.9864 46.6345C75.0081 46.642 74.0386 46.4491 73.1376 46.0677C72.2367 45.6863 71.4234 45.1244 70.7478 44.4168C70.0722 43.7092 69.5486 42.8707 69.2093 41.9531C68.87 41.0354 68.7222 40.058 68.775 39.0811C68.8786 37.0539 69.7528 35.1428 71.2188 33.7388C72.6848 32.3348 74.6317 31.5438 76.6616 31.5277C77.6406 31.5185 78.6112 31.7103 79.5132 32.091C80.4152 32.4718 81.2296 33.0334 81.906 33.7414C82.5824 34.4493 83.1065 35.2883 83.4458 36.2068C83.7852 37.1252 83.9325 38.1035 83.8789 39.0811Z" fill="white"/>
<path id="Vector_64" d="M84.5894 33.1079C84.5702 33.5368 84.4177 33.9491 84.1531 34.2872C83.9573 34.5428 83.7057 34.7503 83.4176 34.8939C83.1294 35.0375 82.8122 35.1133 82.4903 35.1157C82.1783 35.1176 81.8707 35.0431 81.5942 34.8987C81.3177 34.7542 81.0808 34.5443 80.9041 34.2872C80.6702 33.9398 80.5544 33.5263 80.5739 33.1079C80.6024 32.5697 80.8351 32.0626 81.2247 31.6901C81.6142 31.3175 82.1311 31.1076 82.6701 31.1031C82.9301 31.1007 83.1879 31.1516 83.4275 31.2527C83.6671 31.3537 83.8834 31.5027 84.0632 31.6905C84.2431 31.8783 84.3825 32.101 84.473 32.3448C84.5635 32.5885 84.6031 32.8483 84.5894 33.1079Z" fill="#4CAF4F"/>
<path id="Vector_65" d="M63.878 59.7572C63.8638 59.9948 63.7601 60.2181 63.5878 60.3823C63.4154 60.5464 63.1872 60.6391 62.9493 60.6417C62.8344 60.643 62.7204 60.6208 62.6144 60.5764C62.5084 60.532 62.4127 60.4663 62.3331 60.3834C62.2535 60.3005 62.1918 60.2021 62.1517 60.0944C62.1117 59.9867 62.0941 59.8719 62.1002 59.7572C62.1129 59.5191 62.2162 59.2949 62.3889 59.1305C62.5615 58.9661 62.7905 58.8739 63.0289 58.8727C63.1437 58.8718 63.2574 58.8943 63.3632 58.9389C63.469 58.9834 63.5646 59.0491 63.6441 59.1319C63.7236 59.2147 63.7853 59.3129 63.8255 59.4204C63.8657 59.5279 63.8836 59.6425 63.878 59.7572Z" fill="#263238"/>
<path id="Vector_66" d="M67.8522 59.7572C67.8387 59.995 67.7352 60.2188 67.5627 60.3831C67.3902 60.5474 67.1617 60.6398 66.9235 60.6417C66.8088 60.6427 66.6952 60.6201 66.5895 60.5755C66.4839 60.5309 66.3885 60.4652 66.3093 60.3823C66.23 60.2995 66.1685 60.2013 66.1286 60.0938C66.0888 59.9863 66.0713 59.8717 66.0773 59.7572C66.0901 59.5197 66.193 59.2959 66.365 59.1316C66.537 58.9672 66.7652 58.8746 67.0031 58.8727C67.118 58.8714 67.232 58.8936 67.3379 58.938C67.4439 58.9824 67.5397 59.0481 67.6193 59.131C67.6988 59.2139 67.7606 59.3123 67.8006 59.42C67.8407 59.5277 67.8582 59.6425 67.8522 59.7572Z" fill="#263238"/>
<path id="Vector_67" d="M71.8295 59.7572C71.816 59.995 71.7125 60.2188 71.54 60.3831C71.3675 60.5474 71.139 60.6398 70.9008 60.6417C70.786 60.6426 70.6722 60.6201 70.5664 60.5756C70.4606 60.531 70.3651 60.4653 70.2856 60.3825C70.2061 60.2997 70.1443 60.2015 70.1041 60.094C70.0639 59.9865 70.046 59.8719 70.0517 59.7572C70.0651 59.5194 70.1686 59.2956 70.3411 59.1313C70.5136 58.9671 70.7422 58.8746 70.9804 58.8727C71.0953 58.8714 71.2092 58.8936 71.3152 58.938C71.4212 58.9824 71.517 59.0481 71.5965 59.131C71.6761 59.2139 71.7378 59.3123 71.7779 59.42C71.818 59.5277 71.8355 59.6425 71.8295 59.7572Z" fill="#263238"/>
<path id="Vector_68" d="M63.2086 74.7167C63.1945 74.9542 63.0908 75.1776 62.9184 75.3417C62.7461 75.5059 62.5179 75.5986 62.2799 75.6011C62.1651 75.6021 62.0514 75.5796 61.9456 75.535C61.8398 75.4904 61.7442 75.4247 61.6647 75.3419C61.5852 75.2591 61.5235 75.1609 61.4833 75.0534C61.443 74.9459 61.4252 74.8313 61.4308 74.7167C61.4443 74.4788 61.5478 74.2551 61.7203 74.0908C61.8928 73.9265 62.1213 73.834 62.3595 73.8322C62.4743 73.8312 62.5881 73.8537 62.6939 73.8983C62.7996 73.9429 62.8952 74.0086 62.9747 74.0914C63.0542 74.1742 63.116 74.2724 63.1562 74.3799C63.1964 74.4874 63.2142 74.602 63.2086 74.7167Z" fill="#263238"/>
<path id="Vector_69" d="M67.183 74.7167C67.1696 74.954 67.0665 75.1773 66.8946 75.3415C66.7228 75.5057 66.4949 75.5985 66.2572 75.6011C66.1423 75.6025 66.0284 75.5803 65.9224 75.5359C65.8164 75.4914 65.7207 75.4257 65.6411 75.3428C65.5615 75.2599 65.4998 75.1616 65.4597 75.0539C65.4196 74.9462 65.4021 74.8314 65.4082 74.7167C65.4216 74.4788 65.5251 74.2551 65.6976 74.0908C65.8701 73.9265 66.0987 73.834 66.3369 73.8322C66.4515 73.8312 66.5652 73.8537 66.6708 73.8983C66.7764 73.9429 66.8718 74.0087 66.9511 74.0916C67.0303 74.1744 67.0918 74.2726 67.1317 74.3801C67.1716 74.4876 67.189 74.6022 67.183 74.7167Z" fill="#263238"/>
<path id="Vector_70" d="M71.1691 74.7167C71.1556 74.9545 71.0521 75.1783 70.8796 75.3426C70.7071 75.5068 70.4785 75.5993 70.2404 75.6012C70.1257 75.6017 70.0121 75.5789 69.9065 75.5342C69.8009 75.4894 69.7055 75.4237 69.6261 75.341C69.5467 75.2583 69.4849 75.1603 69.4446 75.053C69.4042 74.9456 69.3861 74.8312 69.3912 74.7167C69.4054 74.4791 69.5091 74.2557 69.6815 74.0916C69.8538 73.9275 70.082 73.8348 70.32 73.8322C70.4349 73.8308 70.5488 73.8531 70.6548 73.8975C70.7608 73.9419 70.8565 74.0076 70.9361 74.0905C71.0157 74.1734 71.0774 74.2717 71.1175 74.3795C71.1576 74.4872 71.1751 74.6019 71.1691 74.7167Z" fill="#263238"/>
<path id="Vector_71" d="M75.1373 74.7167C75.1232 74.9542 75.0194 75.1776 74.8471 75.3417C74.6748 75.5059 74.4466 75.5986 74.2086 75.6011C74.0939 75.6017 73.9804 75.5789 73.8748 75.5341C73.7692 75.4894 73.6738 75.4237 73.5944 75.341C73.515 75.2583 73.4532 75.1603 73.4128 75.0529C73.3725 74.9456 73.3543 74.8312 73.3595 74.7167C73.3737 74.4791 73.4774 74.2557 73.6497 74.0916C73.8221 73.9274 74.0502 73.8347 74.2882 73.8322C74.403 73.8312 74.5168 73.8537 74.6226 73.8983C74.7283 73.9429 74.8239 74.0086 74.9034 74.0914C74.9829 74.1742 75.0446 74.2724 75.0849 74.3799C75.1251 74.4874 75.1429 74.602 75.1373 74.7167Z" fill="#263238"/>
<path id="Vector_72" d="M79.1293 74.7167C79.1151 74.9542 79.0114 75.1776 78.8391 75.3417C78.6668 75.5059 78.4386 75.5986 78.2006 75.6011C78.0857 75.6025 77.9717 75.5803 77.8658 75.5359C77.7598 75.4914 77.664 75.4257 77.5844 75.3428C77.5049 75.2599 77.4431 75.1616 77.4031 75.0539C77.363 74.9462 77.3455 74.8314 77.3515 74.7167C77.365 74.4788 77.4685 74.2551 77.641 74.0908C77.8135 73.9265 78.042 73.834 78.2802 73.8322C78.395 73.8312 78.5088 73.8537 78.6146 73.8983C78.7203 73.9429 78.8159 74.0086 78.8954 74.0914C78.9749 74.1742 79.0366 74.2724 79.0769 74.3799C79.1171 74.4874 79.1349 74.602 79.1293 74.7167Z" fill="#263238"/>
<path id="Vector_73" d="M78.526 38.6876C79.76 37.4809 79.8254 35.5466 78.6722 34.3673C77.519 33.1881 75.5837 33.2103 74.3497 34.4171C73.1157 35.6238 73.0502 37.5581 74.2035 38.7373C75.3567 39.9166 77.2919 39.8944 78.526 38.6876Z" fill="#4CAF4F"/>
<path id="Vector_74" d="M82.2368 43.5182C81.5022 44.4805 80.5569 45.2618 79.4734 45.802C78.3899 46.3422 77.1971 46.627 75.9864 46.6345C74.8125 46.6444 73.6541 46.3654 72.6134 45.8219C71.5728 45.2784 70.6818 44.4873 70.0192 43.5182C71.452 42.0912 73.7192 41.1595 76.2312 41.1595C78.7431 41.1595 80.9307 42.0912 82.2368 43.5182Z" fill="#4CAF4F"/>
<path id="Vector_75" opacity="0.1" d="M78.526 38.6876C79.76 37.4809 79.8254 35.5466 78.6722 34.3673C77.519 33.1881 75.5837 33.2103 74.3497 34.4171C73.1157 35.6238 73.0502 37.5581 74.2035 38.7373C75.3567 39.9166 77.2919 39.8944 78.526 38.6876Z" fill="white"/>
<path id="Vector_76" opacity="0.1" d="M82.2368 43.5182C81.5022 44.4805 80.5569 45.2618 79.4734 45.802C78.3899 46.3422 77.1971 46.627 75.9864 46.6345C74.8125 46.6444 73.6541 46.3654 72.6134 45.8219C71.5728 45.2784 70.6818 44.4873 70.0192 43.5182C71.452 42.0912 73.7192 41.1595 76.2312 41.1595C78.7431 41.1595 80.9307 42.0912 82.2368 43.5182Z" fill="white"/>
</g>
<g id="character-1">
<path id="Vector_77" d="M38.859 63.8641C38.5789 64.4773 38.2841 65.1525 38.0276 65.807C37.7711 66.4615 37.5087 67.1367 37.2817 67.8089C36.8181 69.1336 36.4651 70.4945 36.2262 71.8775L36.1613 72.3109C36.1551 72.3852 36.1621 72.4601 36.182 72.532C36.2515 72.7763 36.3611 73.0075 36.5063 73.216C36.8849 73.7557 37.3241 74.2503 37.8153 74.6901C38.3332 75.1718 38.8764 75.6255 39.4427 76.0493C40.0088 76.4856 40.6043 76.9101 41.1911 77.3111L40.6397 78.3459C39.2388 77.7355 37.909 76.9733 36.6743 76.0728C36.0156 75.5924 35.4211 75.0297 34.9054 74.3982C34.5996 74.0224 34.3613 73.5964 34.2007 73.1393C34.1074 72.8538 34.0596 72.5553 34.0592 72.2548C34.0592 72.1841 34.0592 72.0809 34.0592 72.0308V71.8863L34.0887 71.5915C34.2577 70.0554 34.5807 68.5403 35.0528 67.0688C35.2827 66.3436 35.5274 65.6212 35.8075 64.9166C36.0876 64.212 36.3765 63.5221 36.7333 62.8057L38.859 63.8641Z" fill="#E58A7B"/>
<path id="Vector_78" d="M40.7753 77.1283L42.8597 76.0729L42.3202 78.3607C42.3202 78.3607 40.8903 78.7617 40.2269 78.0659L40.7753 77.1283Z" fill="#E58A7B"/>
<path id="Vector_79" d="M44.7672 76.4473L44.213 78.3401L42.3202 78.3607L42.8597 76.0729L44.7672 76.4473Z" fill="#E58A7B"/>
<path id="Vector_80" d="M47.7096 52.8258C47.8211 53.2344 47.9763 53.6298 48.1725 54.0051C48.1152 54.0701 48.0414 54.1184 47.9588 54.1449C47.8763 54.1713 47.7882 54.175 47.7037 54.1555L47.7096 52.8258Z" fill="#DF5753"/>
<path id="Vector_81" d="M47.6478 52.8435C47.7699 52.8435 47.8689 52.6917 47.8689 52.5045C47.8689 52.3172 47.7699 52.1654 47.6478 52.1654C47.5256 52.1654 47.4266 52.3172 47.4266 52.5045C47.4266 52.6917 47.5256 52.8435 47.6478 52.8435Z" fill="#263238"/>
<path id="Vector_82" d="M47.5829 52.1772L48.031 52.0504C48.031 52.0504 47.8129 52.3983 47.5829 52.1772Z" fill="#263238"/>
<path id="Vector_83" d="M41.9516 54.9899C42.2199 56.3608 42.4882 58.8757 41.5271 59.7926C41.5271 59.7926 41.9045 61.1842 44.4547 61.1842C47.2585 61.1842 45.7932 59.7926 45.7932 59.7926C44.2631 59.427 44.3014 58.2919 44.5697 57.2247L41.9516 54.9899Z" fill="#E58A7B"/>
<path id="Vector_84" d="M41.2058 51.8648C41.3473 54.1556 41.3591 55.1285 42.5148 56.3048C44.2572 58.0738 47.0404 57.4016 47.5858 55.1255C48.0782 53.0618 47.7657 49.6654 45.522 48.7543C45.0295 48.5515 44.4934 48.4776 43.9644 48.5397C43.4354 48.6017 42.931 48.7978 42.4989 49.1092C42.0668 49.4206 41.7212 49.8371 41.4949 50.3192C41.2687 50.8014 41.1691 51.3334 41.2058 51.8648Z" fill="#E58A7B"/>
<path id="Vector_85" d="M41.4327 49.2879C40.2829 49.7066 38.7498 49.3941 39.3513 52.9408C39.9881 56.6969 39.0093 57.9322 39.0093 57.9322C39.0093 57.9322 43.3698 58.8609 47.8216 57.8762C47.8216 57.8762 46.4625 55.4999 46.8428 53.7487C47.3293 51.5375 46.946 50.7208 46.946 50.7208C46.946 50.7208 43.0484 48.6983 41.4327 49.2879Z" fill="#263238"/>
<path id="Vector_86" d="M46.2974 53.0587C46.2986 53.4943 46.4233 53.9206 46.6571 54.2882C46.9696 54.7658 47.3381 54.583 47.4295 54.0759C47.512 53.6307 47.4501 52.8435 47.0521 52.5369C46.6541 52.2303 46.3033 52.531 46.2974 53.0587Z" fill="#E58A7B"/>
<path id="Vector_87" d="M40.4333 49.6742C40.1031 48.7455 41.6775 47.3156 45.009 47.9053C48.3405 48.4949 48.485 51.2692 48.485 51.2692L47.8128 50.4673L47.8423 51.3105L44.4193 51.968L40.4333 49.6742Z" fill="#263238"/>
<path id="Vector_88" d="M40.7163 59.9488C40.6966 59.8142 40.7303 59.6772 40.8102 59.5671C40.89 59.4569 41.0097 59.3823 41.1438 59.3592C42.1816 59.1882 44.5402 58.8403 45.7254 59.0054C46.6099 59.1292 46.8398 59.6422 46.8782 60.0638C46.8842 60.1376 46.8743 60.2119 46.8492 60.2816C46.8241 60.3512 46.7844 60.4148 46.7327 60.4678C46.6811 60.5209 46.6186 60.5623 46.5496 60.5892C46.4807 60.6161 46.4067 60.628 46.3327 60.624L41.2087 60.394C41.0879 60.3879 40.9729 60.3403 40.8832 60.2591C40.7934 60.178 40.7345 60.0684 40.7163 59.9488Z" fill="#4CAF4F"/>
<path id="Vector_89" opacity="0.6" d="M40.7163 59.9488C40.6966 59.8142 40.7303 59.6772 40.8102 59.5671C40.89 59.4569 41.0097 59.3823 41.1438 59.3592C42.1816 59.1882 44.5402 58.8403 45.7254 59.0054C46.6099 59.1292 46.8398 59.6422 46.8782 60.0638C46.8842 60.1376 46.8743 60.2119 46.8492 60.2816C46.8241 60.3512 46.7844 60.4148 46.7327 60.4678C46.6811 60.5209 46.6186 60.5623 46.5496 60.5892C46.4807 60.6161 46.4067 60.628 46.3327 60.624L41.2087 60.394C41.0879 60.3879 40.9729 60.3403 40.8832 60.2591C40.7934 60.178 40.7345 60.0684 40.7163 59.9488Z" fill="black"/>
<path id="Vector_90" d="M43.6793 111.455L45.581 112.776L48.7621 108.463L46.8605 107.145L43.6793 111.455Z" fill="#E58A7B"/>
<path id="Vector_91" d="M39.2451 111.369L41.2529 112.513L44.0685 107.952L42.0607 106.808L39.2451 111.369Z" fill="#E58A7B"/>
<path id="Vector_92" d="M48.7592 108.463L47.12 110.686L45.2184 109.368L46.8576 107.145L48.7592 108.463Z" fill="#CF6F64"/>
<path id="Vector_93" d="M42.0578 106.808L44.0686 107.955L42.618 110.305L40.6073 109.158L42.0578 106.808Z" fill="#CF6F64"/>
<path id="Vector_94" d="M45.2831 74.3481C45.2831 74.3481 52.7069 83.703 51.3123 92.6509C50.189 99.8771 43.6734 109.662 43.6734 109.662L40.6101 108.141C42.7693 103.815 44.6119 99.3372 46.1234 94.7442C46.5895 93.3182 46.7256 91.805 46.5213 90.3188C46.317 88.8325 45.7777 87.4121 44.9441 86.1648C41.1821 80.6722 35.1559 83.9418 39.2097 74.3481H45.2831Z" fill="#4CAF4F"/>
<path id="Vector_95" opacity="0.6" d="M45.2831 74.3481C45.2831 74.3481 52.7069 83.703 51.3123 92.6509C50.189 99.8771 43.6734 109.662 43.6734 109.662L40.6101 108.141C42.7693 103.815 44.6119 99.3372 46.1234 94.7442C46.5895 93.3182 46.7256 91.805 46.5213 90.3188C46.317 88.8325 45.7777 87.4121 44.9441 86.1648C41.1821 80.6722 35.1559 83.9418 39.2097 74.3481H45.2831Z" fill="black"/>
<path id="Vector_96" opacity="0.4" d="M48.9243 80.3567L47.8452 79.2836C47.8452 79.3691 49.9355 92.2736 50.5222 95.9C50.8685 94.8406 51.1336 93.7565 51.3153 92.6569C52.0052 88.2669 50.5635 83.7826 48.9243 80.3567Z" fill="black"/>
<path id="Vector_97" d="M48.597 74.3481C48.597 74.3481 57.5362 86.1058 57.7897 93.1551C57.999 99.0516 48.0605 110.476 48.0605 110.476L45.1712 108.607C45.1712 108.607 50.9881 100.493 52.4534 93.8656C51.8873 87.2969 39.9174 74.3481 39.9174 74.3481H48.597Z" fill="#4CAF4F"/>
<path id="Vector_98" opacity="0.6" d="M48.597 74.3481C48.597 74.3481 57.5362 86.1058 57.7897 93.1551C57.999 99.0516 48.0605 110.476 48.0605 110.476L45.1712 108.607C45.1712 108.607 50.9881 100.493 52.4534 93.8656C51.8873 87.2969 39.9174 74.3481 39.9174 74.3481H48.597Z" fill="black"/>
<path id="Vector_99" d="M37.5382 60.3174C36.5829 60.5444 35.666 64.0175 35.666 64.0175L39.4015 66.5117C39.4015 66.5117 40.6456 63.7639 40.2093 62.561C39.7582 61.308 38.7381 60.0314 37.5382 60.3174Z" fill="#4CAF4F"/>
<path id="Vector_100" opacity="0.2" d="M38.2693 62.5552L38.0099 65.583L39.3985 66.5147C39.7819 65.6515 40.0658 64.7474 40.2447 63.82L38.2693 62.5552Z" fill="black"/>
<path id="Vector_101" d="M49.7026 60.3852C49.7026 60.3852 50.8053 60.7714 48.597 74.3452H39.2039C39.3631 70.5124 39.366 68.1538 37.5381 60.3174C38.8533 60.0463 40.1865 59.8709 41.5271 59.7926C42.9473 59.6907 44.373 59.6907 45.7932 59.7926C47.627 59.9606 49.7026 60.3852 49.7026 60.3852Z" fill="#4CAF4F"/>
<path id="Vector_102" d="M50.6579 62.5551C50.8701 63.1447 51.0942 63.7786 51.3301 64.3889C51.5659 64.9992 51.79 65.6272 52.0288 66.2463L52.7511 68.0978L52.9339 68.5607L53.0283 68.7906L53.0725 68.9056C53.0725 68.9263 53.0725 68.9263 53.0725 68.9233C53.0186 68.8474 52.948 68.7848 52.8661 68.7405C52.7495 68.6719 52.618 68.6324 52.4828 68.6255C52.3706 68.622 52.2588 68.6432 52.1556 68.6875C52.02 68.7494 52.02 68.7759 52.0229 68.773C52.0474 68.7533 52.0692 68.7305 52.0878 68.7051C52.251 68.4909 52.3922 68.2607 52.5094 68.0182C52.648 67.747 52.7806 67.458 52.9133 67.1662C53.1727 66.5765 53.4116 65.9662 53.6504 65.35C53.8892 64.7338 54.1162 64.1118 54.3373 63.4838L55.0095 61.6028L56.1446 61.8976C55.9205 63.242 55.6316 64.551 55.2837 65.8837C55.1156 66.547 54.9181 67.2045 54.694 67.8678C54.582 68.201 54.4582 68.5312 54.3167 68.8702C54.1692 69.2382 53.9875 69.5916 53.7742 69.9257C53.6958 70.0382 53.609 70.1446 53.5147 70.2441C53.3642 70.4067 53.1815 70.5363 52.9782 70.6245C52.7978 70.7019 52.6024 70.7382 52.4062 70.7306C52.1864 70.7224 51.9724 70.6585 51.7841 70.5449C51.562 70.4062 51.3777 70.2148 51.2475 69.9876C51.2033 69.911 51.165 69.8343 51.1384 69.7783L51.0824 69.6663L50.9704 69.4363L50.7463 68.9793C50.4515 68.3661 50.1567 67.747 49.9002 67.1249C49.6437 66.5028 49.3724 65.8719 49.1189 65.238C48.8653 64.6041 48.6383 63.9702 48.4231 63.2862L50.6579 62.5551Z" fill="#E58A7B"/>
<path id="Vector_103" d="M49.7027 60.3852C50.8319 60.6535 52.1026 63.9909 52.1026 63.9909L48.7445 66.8478C48.7445 66.8478 46.5716 63.2096 47.0109 62.0097C47.4679 60.7596 48.2285 60.0344 49.7027 60.3852Z" fill="#4CAF4F"/>
<path id="Vector_104" d="M55.5432 60.5473L56.7225 59.5626L57.5421 60.8392L56.9377 61.9035C56.9377 61.9035 55.9766 62.788 55.1275 62.3369C54.9927 62.034 54.9604 61.6954 55.0354 61.3725C55.1104 61.0495 55.2887 60.7598 55.5432 60.5473Z" fill="#E58A7B"/>
<path id="Vector_105" d="M58.8511 59.5656L58.7627 59.8869L56.8964 60.1994L56.7136 59.5626L58.8511 59.5656Z" fill="#E58A7B"/>
<path id="Vector_106" d="M48.2904 110.627L44.9235 108.451L45.5279 107.401L49.3105 109.727L48.2904 110.627Z" fill="#4CAF4F"/>
<path id="Vector_107" d="M42.5708 112.36C42.2754 112.324 41.9915 112.223 41.7394 112.065C41.729 112.062 41.7199 112.055 41.7136 112.046C41.7072 112.037 41.7037 112.026 41.7037 112.015C41.7037 112.004 41.7072 111.993 41.7136 111.984C41.7199 111.975 41.729 111.969 41.7394 111.965C41.8308 111.936 42.6238 111.691 42.8538 111.88C42.8797 111.901 42.8993 111.929 42.9107 111.961C42.9221 111.992 42.9249 112.026 42.9187 112.059C42.9146 112.112 42.897 112.164 42.8676 112.208C42.8382 112.252 42.7979 112.288 42.7506 112.313C42.6954 112.343 42.6337 112.359 42.5708 112.36ZM41.9074 112.036C42.2759 112.224 42.5708 112.292 42.7123 112.222C42.7431 112.204 42.769 112.18 42.7876 112.15C42.8062 112.12 42.8168 112.086 42.8184 112.051C42.8184 112.003 42.8184 111.983 42.7919 111.971C42.6681 111.871 42.2258 111.947 41.9015 112.036H41.9074Z" fill="#263238"/>
<path id="Vector_108" d="M41.76 112.086C41.7444 112.086 41.7296 112.079 41.7187 112.068C41.7143 112.06 41.712 112.051 41.712 112.042C41.712 112.032 41.7143 112.023 41.7187 112.015C41.7187 111.989 41.9104 111.349 42.2111 111.204C42.2495 111.187 42.2912 111.178 42.3334 111.178C42.3757 111.178 42.4174 111.187 42.4558 111.204C42.4972 111.217 42.533 111.244 42.5576 111.28C42.5822 111.316 42.5941 111.359 42.5914 111.402C42.5708 111.667 42.0312 112.033 41.7836 112.095L41.76 112.086ZM42.332 111.281C42.3033 111.282 42.2751 111.289 42.2494 111.302C42.0666 111.39 41.9163 111.735 41.8425 111.944C42.102 111.835 42.4587 111.546 42.4705 111.384C42.4705 111.358 42.4705 111.325 42.4027 111.296C42.3807 111.284 42.3567 111.276 42.332 111.272V111.281Z" fill="#263238"/>
<path id="Vector_109" d="M46.7779 113.634C46.4448 113.634 45.9819 113.206 45.7283 112.944C45.7219 112.935 45.7184 112.924 45.7184 112.913C45.7184 112.902 45.7219 112.891 45.7283 112.882C45.7342 112.872 45.7424 112.865 45.7523 112.86C45.7622 112.854 45.7732 112.852 45.7844 112.853C45.9023 112.853 46.9253 113.006 47.0698 113.295C47.0851 113.321 47.0932 113.35 47.0932 113.38C47.0932 113.41 47.0851 113.44 47.0698 113.466C47.0481 113.511 47.0154 113.549 46.9747 113.578C46.9339 113.607 46.8865 113.625 46.8369 113.631L46.7779 113.634ZM45.9229 112.985C46.2944 113.345 46.6217 113.545 46.8074 113.522C46.8399 113.518 46.8709 113.505 46.8977 113.486C46.9244 113.467 46.946 113.442 46.9607 113.413C46.9673 113.403 46.9708 113.391 46.9708 113.379C46.9708 113.367 46.9673 113.355 46.9607 113.345C46.8841 113.186 46.3386 113.05 45.9229 112.985Z" fill="#263238"/>
<path id="Vector_110" d="M45.9555 112.97C45.8893 112.972 45.8231 112.967 45.7579 112.956C45.7488 112.954 45.7402 112.951 45.733 112.945C45.7258 112.939 45.7201 112.932 45.7167 112.923C45.7123 112.914 45.71 112.905 45.71 112.895C45.71 112.885 45.7123 112.876 45.7167 112.867C45.7343 112.847 46.1324 112.366 46.5097 112.334C46.6166 112.325 46.7224 112.359 46.8046 112.428C46.9196 112.528 46.9137 112.617 46.8842 112.673C46.8105 112.873 46.3004 112.97 45.9555 112.97ZM45.8788 112.861C46.209 112.879 46.7368 112.77 46.8046 112.625C46.8046 112.625 46.8282 112.578 46.7515 112.513C46.721 112.487 46.6854 112.467 46.6468 112.455C46.6083 112.443 46.5676 112.438 46.5274 112.443C46.2732 112.514 46.0469 112.661 45.8788 112.864V112.861Z" fill="#263238"/>
<path id="Vector_111" d="M41.8396 111.767L39.3395 111.06C39.2964 111.047 39.25 111.05 39.2092 111.069C39.1684 111.088 39.1361 111.122 39.1184 111.163L38.2752 113.059C38.2554 113.107 38.2461 113.16 38.2479 113.212C38.2497 113.264 38.2626 113.316 38.2857 113.363C38.3088 113.41 38.3417 113.452 38.382 113.485C38.4224 113.518 38.4694 113.543 38.5199 113.557C39.4044 113.787 39.8289 113.852 40.9286 114.167C41.6067 114.356 42.5737 114.707 43.5083 114.972C44.4429 115.238 44.7555 114.327 44.3928 114.132C42.7536 113.265 42.6239 112.658 42.1757 112.009C42.0955 111.892 41.9765 111.806 41.8396 111.767Z" fill="#4CAF4F"/>
<path id="Vector_112" d="M45.7961 112.599L43.6616 111.125C43.6254 111.098 43.5808 111.086 43.5362 111.091C43.4917 111.095 43.4503 111.115 43.4198 111.148L42.0047 112.67C41.9702 112.709 41.9445 112.755 41.9292 112.805C41.914 112.855 41.9095 112.908 41.9162 112.96C41.9229 113.012 41.9406 113.062 41.968 113.106C41.9955 113.151 42.0321 113.189 42.0754 113.218C42.8272 113.722 43.2164 113.926 44.1569 114.577C44.7466 114.978 45.8875 115.869 46.6836 116.423C47.4796 116.977 48.0722 116.216 47.7892 115.916C46.5214 114.562 46.2443 113.713 46.0349 112.944C45.9986 112.804 45.914 112.682 45.7961 112.599Z" fill="#4CAF4F"/>
<path id="Vector_113" d="M44.0656 109.857L40.2181 107.944L40.6162 106.9L44.726 108.917L44.0656 109.857Z" fill="#4CAF4F"/>
<path id="Vector_114" d="M39.0624 73.7939L38.7381 74.643C38.7057 74.7079 38.7823 74.7757 38.8914 74.7757H48.6443C48.7298 74.7757 48.8005 74.7344 48.8064 74.6813L48.889 73.8381C48.889 73.7821 48.8211 73.732 48.7298 73.732H39.2157C39.1871 73.7293 39.1582 73.7335 39.1315 73.7443C39.1048 73.7551 39.0811 73.7721 39.0624 73.7939Z" fill="#4CAF4F"/>
<path id="Vector_115" opacity="0.4" d="M39.0624 73.7939L38.7381 74.643C38.7057 74.7079 38.7823 74.7757 38.8914 74.7757H48.6443C48.7298 74.7757 48.8005 74.7344 48.8064 74.6813L48.889 73.8381C48.889 73.7821 48.8211 73.732 48.7298 73.732H39.2157C39.1871 73.7293 39.1582 73.7335 39.1315 73.7443C39.1048 73.7551 39.0811 73.7721 39.0624 73.7939Z" fill="white"/>
<path id="Vector_116" d="M40.5984 74.8582H40.3419C40.2918 74.8582 40.2534 74.8317 40.2564 74.7992L40.3773 73.7054C40.3773 73.6759 40.4244 73.6494 40.4746 73.6494H40.7311C40.7812 73.6494 40.8195 73.6759 40.8166 73.7054L40.6957 74.7992C40.6927 74.8317 40.6485 74.8582 40.5984 74.8582Z" fill="#4CAF4F"/>
<path id="Vector_117" d="M46.6129 74.8582H46.3593C46.3092 74.8582 46.2709 74.8317 46.2738 74.7992L46.3918 73.7054C46.3918 73.6759 46.4419 73.6494 46.492 73.6494H46.7456C46.7957 73.6494 46.837 73.6759 46.8311 73.7054L46.7131 74.7992C46.6984 74.8317 46.666 74.8582 46.6129 74.8582Z" fill="#4CAF4F"/>
<g id="Vector_118" style="mix-blend-mode:multiply">
<path d="M40.3743 124.787C44.7365 124.787 48.2727 124.531 48.2727 124.215C48.2727 123.899 44.7365 123.643 40.3743 123.643C36.0122 123.643 32.476 123.899 32.476 124.215C32.476 124.531 36.0122 124.787 40.3743 124.787Z" fill="#F5F5F5"/>
</g>
<path id="Vector_119" d="M45.1859 123.407C43.7885 123 42.2377 122.479 41.3001 121.933C41.2736 121.915 41.2441 121.907 41.2176 121.892V115.565H44.045C44.2596 115.552 44.4612 115.458 44.6087 115.301C44.7562 115.145 44.8383 114.938 44.8383 114.723C44.8383 114.508 44.7562 114.301 44.6087 114.145C44.4612 113.988 44.2596 113.894 44.045 113.881H41.2323V85.0415H39.5341V113.881H36.7244C36.6097 113.875 36.4948 113.891 36.3868 113.931C36.2787 113.97 36.1799 114.031 36.0962 114.11C36.0126 114.188 35.946 114.283 35.9004 114.389C35.8549 114.494 35.8314 114.608 35.8314 114.723C35.8314 114.838 35.8549 114.952 35.9004 115.057C35.946 115.163 36.0126 115.258 36.0962 115.337C36.1799 115.416 36.2787 115.476 36.3868 115.516C36.4948 115.555 36.6097 115.572 36.7244 115.565H39.5341V121.883C39.5076 121.883 39.481 121.907 39.4545 121.924C38.5022 122.479 36.9632 123 35.5658 123.398C35.4714 123.427 35.3903 123.488 35.3372 123.571C35.2842 123.655 35.2627 123.754 35.2766 123.852C35.2905 123.949 35.3389 124.039 35.413 124.104C35.4871 124.169 35.5821 124.205 35.6807 124.206H45.0709C45.1652 124.2 45.2544 124.161 45.3236 124.097C45.3929 124.033 45.438 123.947 45.4514 123.853C45.4649 123.76 45.4459 123.664 45.3975 123.583C45.3492 123.502 45.2745 123.44 45.1859 123.407Z" fill="#E0E0E0"/>
<path id="Vector_120" d="M45.6192 82.105H35.1352C34.2918 82.105 33.608 82.7887 33.608 83.6322V86.7485C33.608 87.5919 34.2918 88.2757 35.1352 88.2757H45.6192C46.4627 88.2757 47.1464 87.5919 47.1464 86.7485V83.6322C47.1464 82.7887 46.4627 82.105 45.6192 82.105Z" fill="#4CAF4F"/>
<path id="Vector_121" d="M35.038 88.2787V88.8153C35.038 89.2575 35.5185 89.6172 36.1082 89.6172H44.6581C45.2478 89.6172 45.7284 89.2575 45.7284 88.8153V88.2787H35.038Z" fill="#4CAF4F"/>
<path id="Vector_122" opacity="0.3" d="M35.038 88.2787V88.8153C35.038 89.2575 35.5185 89.6172 36.1082 89.6172H44.6581C45.2478 89.6172 45.7284 89.2575 45.7284 88.8153V88.2787H35.038Z" fill="white"/>
</g>
</g>
</g>
</svg>
